<svg xmlns="http://www.w3.org/2000/svg" width="476.858" height="239.538" viewBox="0 0 476.858 239.538">
  <g id="Group_930" data-name="Group 930" transform="translate(-1437 -2002.88)">
    <g id="Group_760" data-name="Group 760" transform="translate(1437 2083.423)">
      <path id="Path_1388" data-name="Path 1388" d="M605.143,959.763s-118.965-23.494-192.065,0-60.953,58.4-131.469,48.587-187.861,27.1-143.616,92.06c0,0,467.15-.928,467.15,0Z" transform="translate(-128.285 -949.322)" fill="#a8d29f"/>
    </g>
    <g id="Group_753" data-name="Group 753" transform="translate(1546.607 2002.88)">
      <path id="Path_1341" data-name="Path 1341" d="M2309.6,1352.579l5.576-1.088s-13.327-52.7-11.5-57.055c1.48-3.612,16.842-6.223,24.37-12.534a11.886,11.886,0,0,0,3.525-4.526,16.861,16.861,0,0,0-2.524-17.059,176.358,176.358,0,0,0-26.066,8.443c-8.834,3.786-17.016,8.7-19.278,14.4C2278.26,1296.96,2309.6,1352.579,2309.6,1352.579Z" transform="translate(-2166.235 -1169.391)" fill="#d9d1c9"/>
      <path id="Path_1342" data-name="Path 1342" d="M2310.673,1447.095a1.9,1.9,0,0,1,.991-1.338c1.326-.73,4.041-1.778,6.073-4.491,1.145-1.525,5.869-6.037,5.869-6.037l.027-.014c.122-.029.74-.021,3.736,1.2,1.548.632,3.157-2.274,3.157-2.274a2.944,2.944,0,0,1,.951.682,2.732,2.732,0,0,1,.758,1.743c.075,1.118,1.233,2.934,2.094,4.141.522.731.934,1.24.934,1.24s.323.63-2.31,1.631l-3.151.814c-1.094.126-1.943.058-3.058.212a3.282,3.282,0,0,0-2.411,1.2c-.016.023-.022.035-.022.035l-13.387,3.461C2310.475,1448.97,2310.544,1447.9,2310.673,1447.095Z" transform="translate(-2182.481 -1255.781)" fill="#47aa7c"/>
      <g id="BPbxa9" transform="translate(0 83.498)">
        <g id="Group_711" data-name="Group 711" transform="translate(26.26 51.451)">
          <path id="Path_1343" data-name="Path 1343" d="M2482.4,1406.3a2.488,2.488,0,0,0,2.487-2.487,56.008,56.008,0,0,0-76.606-52.055,2.489,2.489,0,0,0,1.839,4.625,51.028,51.028,0,0,1,69.792,47.431A2.488,2.488,0,0,0,2482.4,1406.3Z" transform="translate(-2406.714 -1347.832)" fill="#004359"/>
        </g>
        <g id="Group_727" data-name="Group 727" transform="translate(0 58.817)">
          <g id="Group_725" data-name="Group 725" transform="translate(4.965 3.372)">
            <g id="Group_724" data-name="Group 724">
              <g id="Group_712" data-name="Group 712" transform="translate(43.492 5.336)">
                <rect id="Rectangle_138" data-name="Rectangle 138" width="1.124" height="41.596" transform="translate(1.058 39.531) rotate(-160.259)" fill="#4f969a"/>
              </g>
              <g id="Group_713" data-name="Group 713" transform="translate(16.961 7.452)">
                <path id="Path_1345" data-name="Path 1345" d="M2504.292,1439.439l.443-1.032-39.754-17.078-26.134-37.335-.921.645,26.317,37.6.147.063Z" transform="translate(-2437.926 -1383.994)" fill="#4f969a"/>
              </g>
              <g id="Group_714" data-name="Group 714" transform="translate(19.006 43.989)">
                <path id="Path_1346" data-name="Path 1346" d="M2524.635,1501.051l1.067-.356c-.282-.844-15.652-41.292-16.306-43.013l-.4-1.051L2484.23,1495.8l.95.6,23.564-37.265C2514.374,1473.947,2524.421,1500.408,2524.635,1501.051Z" transform="translate(-2484.23 -1456.631)" fill="#4f969a"/>
              </g>
              <g id="Group_715" data-name="Group 715" transform="translate(43.552 34.289)">
                <rect id="Rectangle_139" data-name="Rectangle 139" width="1.124" height="44.763" transform="translate(0.19 8.694) rotate(-99.758)" fill="#4f969a"/>
              </g>
              <g id="Group_716" data-name="Group 716" transform="translate(27.383 3.193)">
                <rect id="Rectangle_140" data-name="Rectangle 140" width="40.875" height="1.124" transform="matrix(-0.316, -0.949, 0.949, -0.316, 12.916, 39.136)" fill="#4f969a"/>
              </g>
              <g id="Group_717" data-name="Group 717" transform="translate(0 24.226)">
                <path id="Path_1347" data-name="Path 1347" d="M2480.48,1438.94l.165-.083,40.463-20.512-.509-1-40.3,20.429-43.372-7.275-.186,1.109Z" transform="translate(-2436.744 -1417.342)" fill="#4f969a"/>
              </g>
              <g id="Group_718" data-name="Group 718" transform="translate(26.254 44.019)">
                <path id="Path_1348" data-name="Path 1348" d="M2472.007,1499.676c.24-.705,10.623-26.256,16.437-40.544l22.458,35.329.948-.6-23.625-37.167-.411,1.009c-.677,1.665-16.588,40.771-16.872,41.621Z" transform="translate(-2470.941 -1456.69)" fill="#4f969a"/>
              </g>
              <g id="Group_719" data-name="Group 719" transform="translate(43.566 44.674)">
                <rect id="Rectangle_141" data-name="Rectangle 141" width="44.031" height="1.124" transform="translate(43.551 7.595) rotate(-171.534)" fill="#4f969a"/>
              </g>
              <g id="Group_720" data-name="Group 720" transform="translate(45.47 10.871)">
                <rect id="Rectangle_142" data-name="Rectangle 142" width="1.124" height="36.849" transform="translate(0.848 28.555) rotate(-139.019)" fill="#4f969a"/>
              </g>
              <g id="Group_721" data-name="Group 721" transform="translate(41.679 48.284)">
                <rect id="Rectangle_143" data-name="Rectangle 143" width="40.883" height="1.124" transform="translate(3.378 40.836) rotate(-94.739)" fill="#4f969a"/>
              </g>
              <g id="Group_722" data-name="Group 722" transform="translate(6.797 42.53)">
                <rect id="Rectangle_144" data-name="Rectangle 144" width="1.124" height="46.846" transform="translate(0.641 27.618) rotate(-124.739)" fill="#4f969a"/>
              </g>
              <g id="Group_723" data-name="Group 723" transform="translate(43.085)">
                <path id="Path_1349" data-name="Path 1349" d="M2485.133,1444.6l.8-.791-32.151-32.431v-42.2h-1.124v42.661Z" transform="translate(-2452.656 -1369.18)" fill="#4f969a"/>
              </g>
            </g>
            <path id="Path_1387" data-name="Path 1387" d="M2517.79,1450.927a8.289,8.289,0,1,0-8.289,8.289A8.29,8.29,0,0,0,2517.79,1450.927Z" transform="translate(-2465.854 -1405.687)" fill="#004359"/>
          </g>
          <g id="Group_726" data-name="Group 726">
            <path id="Path_1350" data-name="Path 1350" d="M2469.662,1459.7a48.593,48.593,0,1,0-24.594-6.672A48.667,48.667,0,0,0,2469.662,1459.7Zm0-90.48a41.88,41.88,0,1,1-41.868,41.868A41.915,41.915,0,0,1,2469.662,1369.22Z" transform="translate(-2421.05 -1362.477)" fill="#004359"/>
          </g>
        </g>
        <g id="Group_728" data-name="Group 728" transform="translate(137.713 24.047)">
          <rect id="Rectangle_145" data-name="Rectangle 145" width="5.058" height="93.811" transform="translate(4.817 90.896) rotate(-162.271)" fill="#004359"/>
        </g>
        <g id="Group_729" data-name="Group 729" transform="translate(87.306 24.782)">
          <path id="Path_1351" data-name="Path 1351" d="M2249.784,1385.226l67.428-5.863-125.051-84.547,7.154,14.646,103.243,66.1-53.211,4.627Z" transform="translate(-2192.161 -1294.815)" fill="#004359"/>
        </g>
        <g id="Group_730" data-name="Group 730" transform="translate(82.167 25.379)">
          <path id="Path_1352" data-name="Path 1352" d="M2389.5,1381.857l4.25-2.742L2341.867,1296l-6.041,6.252Z" transform="translate(-2335.826 -1296.001)" fill="#004359"/>
        </g>
        <g id="Group_731" data-name="Group 731" transform="translate(47.956 41.462)">
          <path id="Path_1353" data-name="Path 1353" d="M2456.922,1391.712l28.9-61.837-3.872-1.548a4.9,4.9,0,0,0-6.371,2.739l-23.336,58.736Z" transform="translate(-2452.239 -1327.975)" fill="#004359"/>
        </g>
        <g id="Group_732" data-name="Group 732" transform="translate(77.067 12.831)">
          <path id="Path_1354" data-name="Path 1354" d="M2434.737,1301.587c4.182-10.85,11.16-27.894,11.05-27.727l-4.21-2.8c-.206.309-.341.513-11.307,28.967Z" transform="translate(-2430.27 -1271.056)" fill="#004359"/>
        </g>
        <path id="Path_1355" data-name="Path 1355" d="M2411.393,1280.377a5.13,5.13,0,1,0-7.16,1.168A5.129,5.129,0,0,0,2411.393,1280.377Z" transform="translate(-2305.604 -1258.819)" fill="#004359"/>
        <path id="Path_1356" data-name="Path 1356" d="M2450,1253.675a5.13,5.13,0,1,0-7.16,1.167A5.13,5.13,0,0,0,2450,1253.675Z" transform="translate(-2363.635 -1245.548)" fill="#004359"/>
        <g id="Group_733" data-name="Group 733" transform="translate(81.364 4.594)">
          <path id="Path_1357" data-name="Path 1357" d="M2408.222,1260.033l19.595,12.47,2.717-5.352-19.6-12.47Z" transform="translate(-2408.222 -1254.681)" fill="#004359"/>
        </g>
        <path id="Path_1358" data-name="Path 1358" d="M2364.363,1493.593h10.958a2.349,2.349,0,0,0,2.342-2.342h0a2.349,2.349,0,0,0-2.342-2.341h-10.958a2.349,2.349,0,0,0-2.342,2.341h0A2.349,2.349,0,0,0,2364.363,1493.593Z" transform="translate(-2250.749 -1366.495)" fill="#004359"/>
        <g id="Group_734" data-name="Group 734" transform="translate(118.171 112.341)">
          <rect id="Rectangle_146" data-name="Rectangle 146" width="1.967" height="24.395" transform="matrix(-0.415, -0.91, 0.91, -0.415, 0.815, 11.905)" fill="#004359"/>
        </g>
        <g id="Group_750" data-name="Group 750" transform="translate(156.419 58.817)">
          <g id="Group_748" data-name="Group 748" transform="translate(4.965 3.372)">
            <path id="Path_1359" data-name="Path 1359" d="M2206.827,1450.927a8.289,8.289,0,1,0-8.29,8.289A8.289,8.289,0,0,0,2206.827,1450.927Z" transform="translate(-2154.891 -1405.687)" fill="#4f969a"/>
            <g id="Group_747" data-name="Group 747">
              <g id="Group_735" data-name="Group 735" transform="translate(43.492 5.336)">
                <rect id="Rectangle_147" data-name="Rectangle 147" width="1.124" height="41.596" transform="translate(1.058 39.531) rotate(-160.259)" fill="#4f969a"/>
              </g>
              <g id="Group_736" data-name="Group 736" transform="translate(16.961 7.452)">
                <path id="Path_1360" data-name="Path 1360" d="M2193.328,1439.439l.444-1.032-39.754-17.078-26.134-37.335-.921.645,26.317,37.6.147.063Z" transform="translate(-2126.963 -1383.994)" fill="#4f969a"/>
              </g>
              <g id="Group_737" data-name="Group 737" transform="translate(19.006 43.989)">
                <path id="Path_1361" data-name="Path 1361" d="M2213.673,1501.051l1.066-.356c-.281-.844-15.651-41.292-16.306-43.013l-.4-1.051-24.766,39.165.95.6,23.564-37.265C2203.412,1473.947,2213.458,1500.408,2213.673,1501.051Z" transform="translate(-2173.268 -1456.631)" fill="#4f969a"/>
              </g>
              <g id="Group_738" data-name="Group 738" transform="translate(43.552 34.289)">
                <rect id="Rectangle_148" data-name="Rectangle 148" width="1.124" height="44.763" transform="translate(0.19 8.694) rotate(-99.758)" fill="#4f969a"/>
              </g>
              <g id="Group_739" data-name="Group 739" transform="translate(27.383 3.193)">
                <rect id="Rectangle_149" data-name="Rectangle 149" width="40.875" height="1.124" transform="matrix(-0.316, -0.949, 0.949, -0.316, 12.916, 39.136)" fill="#4f969a"/>
              </g>
              <g id="Group_740" data-name="Group 740" transform="translate(0 24.226)">
                <path id="Path_1362" data-name="Path 1362" d="M2169.517,1438.94l.165-.083,40.463-20.512-.509-1-40.3,20.429-43.371-7.275-.186,1.109Z" transform="translate(-2125.781 -1417.342)" fill="#4f969a"/>
              </g>
              <g id="Group_741" data-name="Group 741" transform="translate(26.254 44.019)">
                <path id="Path_1363" data-name="Path 1363" d="M2161.046,1499.676c.24-.705,10.623-26.256,16.437-40.544l22.458,35.329.948-.6-23.625-37.167-.411,1.009c-.677,1.665-16.589,40.771-16.872,41.621Z" transform="translate(-2159.979 -1456.69)" fill="#4f969a"/>
              </g>
              <g id="Group_742" data-name="Group 742" transform="translate(43.564 44.683)">
                <rect id="Rectangle_150" data-name="Rectangle 150" width="44.03" height="1.124" transform="translate(43.553 7.575) rotate(-171.559)" fill="#4f969a"/>
              </g>
              <g id="Group_743" data-name="Group 743" transform="translate(45.471 10.871)">
                <rect id="Rectangle_151" data-name="Rectangle 151" width="1.124" height="36.848" transform="matrix(-0.755, -0.656, 0.656, -0.755, 0.848, 28.555)" fill="#4f969a"/>
              </g>
              <g id="Group_744" data-name="Group 744" transform="translate(41.679 48.285)">
                <rect id="Rectangle_152" data-name="Rectangle 152" width="40.883" height="1.124" transform="translate(3.378 40.836) rotate(-94.739)" fill="#4f969a"/>
              </g>
              <g id="Group_745" data-name="Group 745" transform="translate(6.797 42.53)">
                <rect id="Rectangle_153" data-name="Rectangle 153" width="1.124" height="46.846" transform="translate(0.641 27.618) rotate(-124.739)" fill="#4f969a"/>
              </g>
              <g id="Group_746" data-name="Group 746" transform="translate(43.085)">
                <path id="Path_1364" data-name="Path 1364" d="M2174.17,1444.6l.8-.791-32.151-32.431v-42.2h-1.124v42.661Z" transform="translate(-2141.693 -1369.18)" fill="#4f969a"/>
              </g>
            </g>
          </g>
          <g id="Group_749" data-name="Group 749">
            <path id="Path_1365" data-name="Path 1365" d="M2158.7,1459.7a48.593,48.593,0,1,0-24.594-6.672A48.667,48.667,0,0,0,2158.7,1459.7Zm0-90.48a41.879,41.879,0,1,1-41.868,41.868A41.915,41.915,0,0,1,2158.7,1369.22Z" transform="translate(-2110.087 -1362.477)" fill="#004359"/>
          </g>
        </g>
        <g id="Group_751" data-name="Group 751" transform="translate(155.564 43.046)">
          <path id="Path_1366" data-name="Path 1366" d="M2163.231,1345.628a2.53,2.53,0,0,0,2.146-.221h0c22.745-13.742,54.213-8.578,63.316-6.667l.015,0a.807.807,0,0,0,.973-.79v-1.778a2.742,2.742,0,0,0-2.339-2.714c-4.924-.733-16.429-2.307-22.856-2.335h-.52c-14.4,0-26.831,2.576-37.048,7.669a8.619,8.619,0,0,1-6.7.414l-2.8-.985a3.073,3.073,0,0,0-3.918,1.881h0a1.985,1.985,0,0,0,1.214,2.53Z" transform="translate(-2153.38 -1331.124)" fill="#004359"/>
        </g>
        <path id="Path_1367" data-name="Path 1367" d="M2278.7,1286.714s.913-4.145-1.686-4.426-12.082,1.757-14.611,1.475-15.736-2.459-18.054-.211-1.334,4.215,3.3,4.636,10.818,1.194,12.575,2.669S2274.7,1296.689,2278.7,1286.714Z" transform="translate(-2092.149 -1263.794)" fill="#004359"/>
        <path id="Path_1368" data-name="Path 1368" d="M2335.919,1460.03a12.644,12.644,0,1,0-12.644,12.645A12.644,12.644,0,0,0,2335.919,1460.03Z" transform="translate(-2183.154 -1345.858)" fill="#004359"/>
      </g>
      <path id="Path_1369" data-name="Path 1369" d="M2433.918,1254.853s-4.14-5.252-6.4-4.6a5.444,5.444,0,0,0-4.133,5.428c.1.728.049,3.6,1.784,4.213a4.741,4.741,0,0,0,4.339-.813C2430.306,1258.41,2433.918,1254.853,2433.918,1254.853Z" transform="translate(-2337.861 -1164.361)" fill="#d9d1c9"/>
      <path id="Path_1370" data-name="Path 1370" d="M2327.72,1211.1a6,6,0,0,0,4.533,4.352c3.96,1.044,28.453-9.262,34.283-12.134,3.133-1.567,7.66-10.27,11.14-17.886.827-1.871,1.61-3.655,2.307-5.266,1.74-4.047,2.872-6.962,2.872-6.962,0-4-4.42-2.44-8.423-.612-1.219.566-7.6-2.131-9.293,1.133-.783,1.523-1.823,1.35-2.606,3.047-3.09,6.832-5.918,14.535-6.527,16.363C2354.918,1196.4,2327.72,1211.1,2327.72,1211.1Z" transform="translate(-2238.686 -1124.852)" fill="#d9d1c9"/>
      <path id="Path_1371" data-name="Path 1371" d="M2428.335,1260.948s-4.117-5.17-6.4-4.6c-5.381,1.345-4.657,5.224-4.562,5.953s.478,3.073,2.213,3.688a4.741,4.741,0,0,0,4.339-.813C2424.724,1264.5,2428.335,1260.948,2428.335,1260.948Z" transform="translate(-2329.219 -1167.396)" fill="#eaddd0"/>
      <path id="Path_1372" data-name="Path 1372" d="M2345.158,1146.049l-13.975,5.157a33.565,33.565,0,0,1-5.012-7.013c-1.783-3.132-3.019-5.9-3.019-5.9l9.762-6.836,3.066-2.148C2336.179,1135.54,2345.158,1146.049,2345.158,1146.049Z" transform="translate(-2198.69 -1104.282)" fill="#eaddd0"/>
      <path id="Path_1373" data-name="Path 1373" d="M2353.5,1134.81s-2.765,8.624-10.549,11.506c-1.783-3.132-3.019-5.9-3.019-5.9l9.763-6.836Z" transform="translate(-2215.466 -1106.405)" fill="#eaddd0"/>
      <path id="Path_1374" data-name="Path 1374" d="M2338.5,1118.488s17.279,2.71,18.8-8.077,4.777-17.7-6.191-19.888-13.7,1.627-15.081,5.1S2334.049,1117.505,2338.5,1118.488Z" transform="translate(-2218.466 -1084.686)" fill="#eaddd0"/>
      <path id="Path_1375" data-name="Path 1375" d="M2356.948,1083.426a2.994,2.994,0,0,0-1.416.818l-.009-.013c-.044-2.326-2.328-4.678-2.328-4.678,1.1,1.378.74,3.931.74,3.931-3.254-5.565-19.1-1.188-20.582-.818s-2.534-1.858-2.534-1.858c-2.345,2.032-3.238,7-1.293,10.255s8.248,8.03,10.063,7.12,1.819.97,1.725,3.61,4.478,7.077,7.7,7.721c2.6.52,2.8-1.258,3.509-2.392a3.568,3.568,0,0,1,.632-.763c3.536-3.193,5.485-9.573,4.693-15.86a15.745,15.745,0,0,0-1.926-5.611A8.1,8.1,0,0,1,2356.948,1083.426Z" transform="translate(-2214.23 -1079.553)" fill="#a67b52"/>
      <path id="Path_1376" data-name="Path 1376" d="M2283.066,1268.761c.174.784,2.089,7.224,7.049,8.878,3.221,1.088,11.053,3.742,18.016,4.264a11.886,11.886,0,0,0,3.525-4.526,16.861,16.861,0,0,0-2.524-17.059A176.366,176.366,0,0,0,2283.066,1268.761Z" transform="translate(-2146.324 -1169.391)" fill="#807e7c"/>
      <path id="Path_1377" data-name="Path 1377" d="M2312.531,1231.956s14,16.125,1.144,34.254-33.788,32.76-34.94,39.226c-2.23,12.514-15.558,38.351-21.9,51.134l-5.44-2.085s10.2-60.586,13.828-67.838,22.415-41.2,22.415-41.2Z" transform="translate(-2136.542 -1155.295)" fill="#eaddd0"/>
      <path id="Path_1378" data-name="Path 1378" d="M2334.44,1172.993c1.349.435,4.613,1.654,5.483,3.134.914,1.479,10.487-2.655,11.619-6.528-2.742-3-7.442-5.569-10.184-4.7C2339.749,1165.379,2337.138,1168.816,2334.44,1172.993Z" transform="translate(-2210.753 -1121.884)" fill="#ffd176"/>
      <path id="Path_1379" data-name="Path 1379" d="M2289.845,1241.814s-18.175,12.95-30.324,12.224c0,0-7.978,13.6-9.746,18.087,0,0,20.67,10.335,31.414,8.432,0,0,14.007-13.6,13.191-23.119A38.881,38.881,0,0,0,2289.845,1241.814Z" transform="translate(-2111.037 -1160.194)" fill="#807e7c"/>
      <path id="Path_1380" data-name="Path 1380" d="M2259.467,1171.706l4.356,6.206.348.784,9.052,20.671,4.613,10.531a26.141,26.141,0,0,0,11.4-.7c14.013-4.787,20.1-13.142,20.1-13.142-8.137-21.28-19.408-35.815-21.714-38.382-4-4.352-14.491-7.92-14.491-7.92-2.872,2.959-13.142,8.138-13.142,8.138C2257.731,1159.678,2259.467,1171.706,2259.467,1171.706Z" transform="translate(-2130.52 -1114.443)" fill="#ffd176"/>
      <path id="Path_1381" data-name="Path 1381" d="M2322.916,1194.088l9.052,20.671c6.875-13.882,2.524-34.03,2.524-34.03s-11.054,9.574-11.445,10.313A22.663,22.663,0,0,0,2322.916,1194.088Z" transform="translate(-2189.264 -1129.835)" fill="#ffd176"/>
      <path id="Path_1382" data-name="Path 1382" d="M2321.637,1211.778a6,6,0,0,0,4.533,4.352c3.96,1.044,28.453-9.262,34.284-12.134,3.133-1.567,7.658-10.27,11.14-17.886.827-1.871,1.61-3.655,2.306-5.266,1.741-4.047,2.872-6.962,2.872-6.962,0-4-9.443-9.444-13.447-7.616-1.218.566-2.829,3.046-4.526,6.31-.784,1.523-1.566,3.177-2.35,4.874-3.09,6.832-5.918,14.535-6.528,16.363C2348.835,1197.077,2321.637,1211.778,2321.637,1211.778Z" transform="translate(-2229.543 -1122.467)" fill="#eaddd0"/>
      <path id="Path_1383" data-name="Path 1383" d="M2321.637,1177.45a82.4,82.4,0,0,1,15.144,8.66c.827-1.871,1.61-3.655,2.306-5.266,1.74-4.047,2.872-6.962,2.872-6.962,0-4-9.443-9.444-13.446-7.616-1.219.566-2.829,3.046-4.526,6.31C2323.2,1174.1,2322.42,1175.753,2321.637,1177.45Z" transform="translate(-2194.73 -1122.467)" fill="#ffd176"/>
      <g id="Group_752" data-name="Group 752" transform="translate(99.52 195.8)">
        <path id="Path_1384" data-name="Path 1384" d="M2388.589,1479.24h-3.255c-1.09-.152-1.9-.431-3.014-.56a3.286,3.286,0,0,0-2.636.56c-.021.019-.03.029-.03.029h-13.827c-.348-.439-.014-1.457.313-2.205a1.894,1.894,0,0,1,1.294-1.046c1.466-.375,4.357-.71,7-2.829,1.49-1.19,7.192-4.376,7.192-4.376l.03-.006c.126,0,.722.164,3.316,2.1,1.34,1,3.625-1.412,3.625-1.412a2.961,2.961,0,0,1,.75.9,2.724,2.724,0,0,1,.3,1.877c-.206,1.1.459,3.149.991,4.534.322.839.594,1.434.594,1.434S2391.389,1478.931,2388.589,1479.24Z" transform="translate(-2365.68 -1468.806)" fill="#47aa7c"/>
        <path id="Path_1385" data-name="Path 1385" d="M2377.144,1470.394a10.887,10.887,0,0,1-3.505,1.563c-1.469.171-4.215-3.145-4.215-3.145l.03-.006c.126,0,.722.164,3.316,2.1,1.34,1,3.625-1.412,3.625-1.412A2.961,2.961,0,0,1,2377.144,1470.394Z" transform="translate(-2353.472 -1468.806)" fill="#47aa7c"/>
        <path id="Path_1386" data-name="Path 1386" d="M2388.589,1487.143h-3.255c-1.09-.152-1.9-.431-3.014-.56a3.286,3.286,0,0,0-2.636.56c-.021.019-.03.029-.03.029h-13.827c-.348-.439-.014-1.457.313-2.205.42-.33.538,1.434.77,1.715s11.28.1,11.917-.307a7.418,7.418,0,0,1,5.22-.564c2.322.49,5.744-.767,6.592-1.1.322.839.594,1.434.594,1.434S2391.389,1486.834,2388.589,1487.143Z" transform="translate(-2365.68 -1476.709)" fill="#47aa7c"/>
      </g>
    </g>
  </g>
</svg>
