<?xml version="1.0" encoding="UTF-8" standalone="no"?>
<svg
   xmlns:dc="http://purl.org/dc/elements/1.1/"
   xmlns:cc="http://creativecommons.org/ns#"
   xmlns:rdf="http://www.w3.org/1999/02/22-rdf-syntax-ns#"
   xmlns:svg="http://www.w3.org/2000/svg"
   xmlns="http://www.w3.org/2000/svg"
   xmlns:sodipodi="http://sodipodi.sourceforge.net/DTD/sodipodi-0.dtd"
   xmlns:inkscape="http://www.inkscape.org/namespaces/inkscape"
   width="948"
   height="476.205"
   viewBox="0 0 948 476.205"
   version="1.1"
   id="svg111"
   sodipodi:docname="bike.svg"
   inkscape:version="0.92.3 (2405546, 2018-03-11)">
  <metadata
     id="metadata117">
    <rdf:RDF>
      <cc:Work
         rdf:about="">
        <dc:format>image/svg+xml</dc:format>
        <dc:type
           rdf:resource="http://purl.org/dc/dcmitype/StillImage" />
        <dc:title></dc:title>
      </cc:Work>
    </rdf:RDF>
  </metadata>
  <defs
     id="defs115" />
  <sodipodi:namedview
     pagecolor="#ffffff"
     bordercolor="#666666"
     borderopacity="1"
     objecttolerance="10"
     gridtolerance="10"
     guidetolerance="10"
     inkscape:pageopacity="0"
     inkscape:pageshadow="2"
     inkscape:window-width="1554"
     inkscape:window-height="726"
     id="namedview113"
     showgrid="false"
     inkscape:zoom="0.62162861"
     inkscape:cx="474"
     inkscape:cy="366.7967"
     inkscape:window-x="0"
     inkscape:window-y="0"
     inkscape:window-maximized="0"
     inkscape:current-layer="svg111" />
  <g
     id="Group_929"
     data-name="Group 929"
     transform="translate(-972.09216,-2001.2713)">
    <g
       id="Group_760"
       data-name="Group 760"
       transform="translate(1437,2163)">
      <path
         id="Path_1388"
         data-name="Path 1388"
         d="m 1076.285,970.08 c 0,0 -236.5,-46.707 -381.828,0 -145.328,46.707 -121.175,116.11 -261.363,96.591 -140.188,-19.519 -373.47,53.873 -285.511,183.016 0,0 928.7,-1.844 928.7,0 z"
         transform="translate(-128.285,-949.322)"
         inkscape:connector-curvature="0"
         style="fill:#a8d29f" />
    </g>
    <g
       id="Group_753"
       data-name="Group 753"
       transform="translate(1572,2002.88)">
      <path
         id="Path_1341"
         data-name="Path 1341"
         d="m 2335.811,1443.735 11.085,-2.163 c 0,0 -26.494,-104.777 -22.862,-113.427 2.942,-7.181 33.481,-12.372 48.448,-24.917 a 23.632,23.632 0 0 0 7.007,-9 c 7.958,-19.464 -5.018,-33.913 -5.018,-33.913 0,0 -27.165,6.23 -51.82,16.784 -17.563,7.527 -33.827,17.3 -38.324,28.635 -10.815,27.428 51.484,138.001 51.484,138.001 z"
         transform="translate(-2050.806,-1079.553)"
         inkscape:connector-curvature="0"
         style="fill:#d9d1c9" />
      <path
         id="Path_1342"
         data-name="Path 1342"
         d="m 2310.77,1459.888 a 3.77,3.77 0 0 1 1.97,-2.659 c 2.636,-1.452 8.034,-3.534 12.073,-8.929 2.276,-3.031 11.667,-12 11.667,-12 l 0.054,-0.027 c 0.243,-0.058 1.471,-0.043 7.427,2.394 3.078,1.256 6.276,-4.52 6.276,-4.52 a 5.853,5.853 0 0 1 1.89,1.356 5.429,5.429 0 0 1 1.506,3.466 c 0.15,2.222 2.451,5.832 4.163,8.233 1.038,1.454 1.856,2.465 1.856,2.465 0,0 0.643,1.253 -4.592,3.242 l -6.265,1.619 c -2.175,0.251 -3.862,0.115 -6.079,0.422 -3.367,0.466 -4.566,2.04 -4.794,2.39 -0.031,0.046 -0.044,0.069 -0.044,0.069 l -26.613,6.88 c -0.89,-0.673 -0.753,-2.797 -0.495,-4.401 z"
         transform="translate(-2055.921,-1079.553)"
         inkscape:connector-curvature="0"
         style="fill:#47aa7c" />
      <g
         id="BPbxa9"
         transform="translate(0,165.995)">
        <g
           id="Group_711"
           data-name="Group 711"
           transform="translate(52.205,102.284)">
          <path
             id="Path_1343"
             data-name="Path 1343"
             d="m 2557.183,1464.068 a 4.946,4.946 0 0 0 4.944,-4.945 111.344,111.344 0 0 0 -152.295,-103.487 4.9473044,4.9473044 0 0 0 3.657,9.194 101.444,101.444 0 0 1 138.748,94.293 4.947,4.947 0 0 0 4.946,4.945 z"
             transform="translate(-2406.714,-1347.832)"
             inkscape:connector-curvature="0"
             style="fill:#004359" />
        </g>
        <g
           id="Group_727"
           data-name="Group 727"
           transform="translate(0,116.929)">
          <g
             id="Group_725"
             data-name="Group 725"
             transform="translate(9.87,6.703)">
            <g
               id="Group_724"
               data-name="Group 724">
              <g
                 id="Group_712"
                 data-name="Group 712"
                 transform="translate(86.463,10.608)">
                <rect
                   id="Rectangle_138"
                   data-name="Rectangle 138"
                   width="2.2349999"
                   height="82.694"
                   transform="rotate(-160.259,7.8891421,39.111455)"
                   x="0"
                   y="0"
                   style="fill:#4f969a" />
              </g>
              <g
                 id="Group_713"
                 data-name="Group 713"
                 transform="translate(33.718,14.814)">
                <path
                   id="Path_1345"
                   data-name="Path 1345"
                   d="m 2569.861,1494.219 0.882,-2.053 -79.031,-33.95 -51.955,-74.222 -1.831,1.281 52.319,74.742 0.293,0.126 z"
                   transform="translate(-2437.926,-1383.994)"
                   inkscape:connector-curvature="0"
                   style="fill:#4f969a" />
              </g>
              <g
                 id="Group_714"
                 data-name="Group 714"
                 transform="translate(37.785,87.451)">
                <path
                   id="Path_1346"
                   data-name="Path 1346"
                   d="m 2564.555,1544.939 2.121,-0.708 c -0.561,-1.677 -31.116,-82.088 -32.417,-85.51 l -0.793,-2.09 -49.236,77.86 1.889,1.2 46.846,-74.083 c 11.191,29.448 31.165,82.053 31.59,83.331 z"
                   transform="translate(-2484.23,-1456.631)"
                   inkscape:connector-curvature="0"
                   style="fill:#4f969a" />
              </g>
              <g
                 id="Group_715"
                 data-name="Group 715"
                 transform="translate(86.581,68.167)">
                <rect
                   id="Rectangle_139"
                   data-name="Rectangle 139"
                   width="2.234"
                   height="88.989998"
                   transform="rotate(-99.758,7.4725762,8.4828074)"
                   x="0"
                   y="0"
                   style="fill:#4f969a" />
              </g>
              <g
                 id="Group_716"
                 data-name="Group 716"
                 transform="translate(54.438,6.347)">
                <rect
                   id="Rectangle_140"
                   data-name="Rectangle 140"
                   width="81.259003"
                   height="2.2349999"
                   transform="matrix(-0.316,-0.949,0.949,-0.316,25.677,77.802)"
                   x="0"
                   y="0"
                   style="fill:#4f969a" />
              </g>
              <g
                 id="Group_717"
                 data-name="Group 717"
                 transform="translate(0,48.162)">
                <path
                   id="Path_1347"
                   data-name="Path 1347"
                   d="m 2523.691,1460.279 0.328,-0.166 80.441,-40.778 -1.011,-1.993 -80.113,40.612 -86.223,-14.463 -0.37,2.2 z"
                   transform="translate(-2436.744,-1417.342)"
                   inkscape:connector-curvature="0"
                   style="fill:#4f969a" />
              </g>
              <g
                 id="Group_718"
                 data-name="Group 718"
                 transform="translate(52.193,87.51)">
                <path
                   id="Path_1348"
                   data-name="Path 1348"
                   d="m 2473.061,1542.147 c 0.476,-1.4 21.119,-52.2 32.676,-80.6 l 44.646,70.234 1.885,-1.2 -46.968,-73.891 -0.817,2.005 c -1.346,3.309 -32.978,81.053 -33.542,82.744 z"
                   transform="translate(-2470.941,-1456.69)"
                   inkscape:connector-curvature="0"
                   style="fill:#4f969a" />
              </g>
              <g
                 id="Group_719"
                 data-name="Group 719"
                 transform="translate(86.609,88.812)">
                <rect
                   id="Rectangle_141"
                   data-name="Rectangle 141"
                   width="87.533997"
                   height="2.2349999"
                   transform="rotate(-171.534,43.848735,4.3449123)"
                   x="0"
                   y="0"
                   style="fill:#4f969a" />
              </g>
              <g
                 id="Group_720"
                 data-name="Group 720"
                 transform="translate(90.396,21.612)">
                <rect
                   id="Rectangle_142"
                   data-name="Rectangle 142"
                   width="2.234"
                   height="73.255997"
                   transform="rotate(-139.019,11.449979,28.068975)"
                   x="0"
                   y="0"
                   style="fill:#4f969a" />
              </g>
              <g
                 id="Group_721"
                 data-name="Group 721"
                 transform="translate(82.858,95.99)">
                <rect
                   id="Rectangle_143"
                   data-name="Rectangle 143"
                   width="81.276001"
                   height="2.2349999"
                   transform="rotate(-94.739,40.723196,37.50082)"
                   x="0"
                   y="0"
                   style="fill:#4f969a" />
              </g>
              <g
                 id="Group_722"
                 data-name="Group 722"
                 transform="translate(13.513,84.55)">
                <rect
                   id="Rectangle_144"
                   data-name="Rectangle 144"
                   width="2.2349999"
                   height="93.129997"
                   transform="rotate(-124.739,15.007433,27.119053)"
                   x="0"
                   y="0"
                   style="fill:#4f969a" />
              </g>
              <g
                 id="Group_723"
                 data-name="Group 723"
                 transform="translate(85.653)">
                <path
                   id="Path_1349"
                   data-name="Path 1349"
                   d="m 2517.221,1519.117 1.587,-1.573 -63.917,-64.473 v -83.891 h -2.234 v 84.811 z"
                   transform="translate(-2452.656,-1369.18)"
                   inkscape:connector-curvature="0"
                   style="fill:#4f969a" />
              </g>
            </g>
            <path
               id="Path_1387"
               data-name="Path 1387"
               d="m 2534.17,1459.117 a 16.479,16.479 0 1 0 -16.479,16.479 16.48,16.48 0 0 0 16.479,-16.479 z"
               transform="translate(-2430.92,-1369.18)"
               inkscape:connector-curvature="0"
               style="fill:#004359" />
          </g>
          <g
             id="Group_726"
             data-name="Group 726">
            <path
               id="Path_1350"
               data-name="Path 1350"
               d="m 2517.691,1555.758 a 96.605,96.605 0 1 0 -48.894,-13.265 96.75,96.75 0 0 0 48.894,13.265 z m 0,-179.875 a 83.258,83.258 0 1 1 -83.234,83.234 83.328,83.328 0 0 1 83.234,-83.234 z"
               transform="translate(-2421.05,-1362.477)"
               inkscape:connector-curvature="0"
               style="fill:#004359" />
          </g>
        </g>
        <g
           id="Group_728"
           data-name="Group 728"
           transform="translate(273.775,47.805)">
          <rect
             id="Rectangle_145"
             data-name="Rectangle 145"
             width="10.054"
             height="186.498"
             transform="rotate(-162.271,18.879741,89.60418)"
             x="0"
             y="0"
             style="fill:#004359" />
        </g>
        <g
           id="Group_729"
           data-name="Group 729"
           transform="translate(173.566,49.268)">
          <path
             id="Path_1351"
             data-name="Path 1351"
             d="m 2306.717,1474.553 134.048,-11.656 -248.6,-168.081 14.222,29.116 205.249,131.405 -105.785,9.2 z"
             transform="translate(-2192.161,-1294.815)"
             inkscape:connector-curvature="0"
             style="fill:#004359" />
        </g>
        <g
           id="Group_730"
           data-name="Group 730"
           transform="translate(163.349,50.453)">
          <path
             id="Path_1352"
             data-name="Path 1352"
             d="m 2442.533,1466.684 8.449,-5.45 -103.146,-165.234 -12.01,12.429 z"
             transform="translate(-2335.826,-1296.001)"
             inkscape:connector-curvature="0"
             style="fill:#004359" />
        </g>
        <g
           id="Group_731"
           data-name="Group 731"
           transform="translate(95.337,82.427)">
          <path
             id="Path_1353"
             data-name="Path 1353"
             d="m 2461.549,1454.685 57.445,-122.933 -7.7,-3.078 a 9.737,9.737 0 0 0 -12.665,5.445 l -46.392,116.768 z"
             transform="translate(-2452.239,-1327.975)"
             inkscape:connector-curvature="0"
             style="fill:#004359" />
        </g>
        <g
           id="Group_732"
           data-name="Group 732"
           transform="translate(153.211,25.508)">
          <path
             id="Path_1354"
             data-name="Path 1354"
             d="m 2439.151,1331.752 c 8.313,-21.57 22.186,-55.453 21.967,-55.122 l -8.369,-5.574 c -0.41,0.614 -0.679,1.019 -22.479,57.586 z"
             transform="translate(-2430.27,-1271.056)"
             inkscape:connector-curvature="0"
             style="fill:#004359" />
        </g>
        <path
           id="Path_1355"
           data-name="Path 1355"
           d="m 2420.576,1288.406 a 10.2,10.2 0 1 0 -14.235,2.322 10.2,10.2 0 0 0 14.235,-2.322 z"
           transform="translate(-2210.266,-1245.548)"
           inkscape:connector-curvature="0"
           style="fill:#004359" />
        <path
           id="Path_1356"
           data-name="Path 1356"
           d="m 2459.186,1261.7 a 10.2,10.2 0 1 0 -14.234,2.32 10.2,10.2 0 0 0 14.234,-2.32 z"
           transform="translate(-2287.484,-1245.548)"
           inkscape:connector-curvature="0"
           style="fill:#004359" />
        <g
           id="Group_733"
           data-name="Group 733"
           transform="translate(161.753,9.133)">
          <path
             id="Path_1357"
             data-name="Path 1357"
             d="m 2408.222,1265.32 38.955,24.79 5.4,-10.64 -38.955,-24.79 z"
             transform="translate(-2408.222,-1254.681)"
             inkscape:connector-curvature="0"
             style="fill:#004359" />
        </g>
        <path
           id="Path_1358"
           data-name="Path 1358"
           d="m 2366.677,1498.22 h 21.786 a 4.669,4.669 0 0 0 4.656,-4.655 v 0 a 4.669,4.669 0 0 0 -4.656,-4.655 h -21.786 a 4.669,4.669 0 0 0 -4.655,4.655 v 0 a 4.669,4.669 0 0 0 4.655,4.655 z"
           transform="translate(-2140.81,-1245.548)"
           inkscape:connector-curvature="0"
           style="fill:#004359" />
        <g
           id="Group_734"
           data-name="Group 734"
           transform="translate(234.925,223.335)">
          <rect
             id="Rectangle_146"
             data-name="Rectangle 146"
             width="3.9100001"
             height="48.497002"
             transform="matrix(-0.415,-0.91,0.91,-0.415,1.621,23.668)"
             x="0"
             y="0"
             style="fill:#004359" />
        </g>
        <g
           id="Group_750"
           data-name="Group 750"
           transform="translate(310.963,116.929)">
          <g
             id="Group_748"
             data-name="Group 748"
             transform="translate(9.87,6.703)">
            <path
               id="Path_1359"
               data-name="Path 1359"
               d="m 2223.207,1459.117 a 16.479,16.479 0 1 0 -16.48,16.479 16.479,16.479 0 0 0 16.48,-16.479 z"
               transform="translate(-2119.957,-1369.18)"
               inkscape:connector-curvature="0"
               style="fill:#4f969a" />
            <g
               id="Group_747"
               data-name="Group 747">
              <g
                 id="Group_735"
                 data-name="Group 735"
                 transform="translate(86.462,10.608)">
                <rect
                   id="Rectangle_147"
                   data-name="Rectangle 147"
                   width="2.2349999"
                   height="82.694"
                   transform="rotate(-160.259,7.8891421,39.111455)"
                   x="0"
                   y="0"
                   style="fill:#4f969a" />
              </g>
              <g
                 id="Group_736"
                 data-name="Group 736"
                 transform="translate(33.718,14.814)">
                <path
                   id="Path_1360"
                   data-name="Path 1360"
                   d="m 2258.9,1494.219 0.882,-2.053 -79.031,-33.95 -51.955,-74.222 -1.831,1.281 52.319,74.742 0.293,0.126 z"
                   transform="translate(-2126.963,-1383.994)"
                   inkscape:connector-curvature="0"
                   style="fill:#4f969a" />
              </g>
              <g
                 id="Group_737"
                 data-name="Group 737"
                 transform="translate(37.785,87.451)">
                <path
                   id="Path_1361"
                   data-name="Path 1361"
                   d="m 2253.593,1544.939 2.12,-0.708 c -0.559,-1.677 -31.115,-82.088 -32.416,-85.51 l -0.794,-2.09 -49.235,77.86 1.889,1.2 L 2222,1461.6 c 11.2,29.456 31.167,82.061 31.593,83.339 z"
                   transform="translate(-2173.268,-1456.631)"
                   inkscape:connector-curvature="0"
                   style="fill:#4f969a" />
              </g>
              <g
                 id="Group_738"
                 data-name="Group 738"
                 transform="translate(86.581,68.167)">
                <rect
                   id="Rectangle_148"
                   data-name="Rectangle 148"
                   width="2.234"
                   height="88.989998"
                   transform="rotate(-99.758,7.4725762,8.4828074)"
                   x="0"
                   y="0"
                   style="fill:#4f969a" />
              </g>
              <g
                 id="Group_739"
                 data-name="Group 739"
                 transform="translate(54.438,6.347)">
                <rect
                   id="Rectangle_149"
                   data-name="Rectangle 149"
                   width="81.259003"
                   height="2.2349999"
                   transform="matrix(-0.316,-0.949,0.949,-0.316,25.677,77.802)"
                   x="0"
                   y="0"
                   style="fill:#4f969a" />
              </g>
              <g
                 id="Group_740"
                 data-name="Group 740"
                 transform="translate(0,48.162)">
                <path
                   id="Path_1362"
                   data-name="Path 1362"
                   d="m 2212.729,1460.279 0.328,-0.166 80.441,-40.778 -1.011,-1.993 -80.113,40.612 -86.223,-14.463 -0.37,2.2 z"
                   transform="translate(-2125.781,-1417.342)"
                   inkscape:connector-curvature="0"
                   style="fill:#4f969a" />
              </g>
              <g
                 id="Group_741"
                 data-name="Group 741"
                 transform="translate(52.193,87.51)">
                <path
                   id="Path_1363"
                   data-name="Path 1363"
                   d="m 2162.1,1542.147 c 0.477,-1.4 21.119,-52.2 32.676,-80.6 l 44.646,70.234 1.884,-1.2 -46.967,-73.889 -0.817,2.005 c -1.345,3.309 -32.978,81.053 -33.542,82.744 z"
                   transform="translate(-2159.979,-1456.69)"
                   inkscape:connector-curvature="0"
                   style="fill:#4f969a" />
              </g>
              <g
                 id="Group_742"
                 data-name="Group 742"
                 transform="translate(86.607,88.831)">
                <rect
                   id="Rectangle_150"
                   data-name="Rectangle 150"
                   width="87.532997"
                   height="2.2349999"
                   transform="rotate(-171.559,43.848177,4.3352239)"
                   x="0"
                   y="0"
                   style="fill:#4f969a" />
              </g>
              <g
                 id="Group_743"
                 data-name="Group 743"
                 transform="translate(90.396,21.612)">
                <rect
                   id="Rectangle_151"
                   data-name="Rectangle 151"
                   width="2.234"
                   height="73.254997"
                   transform="matrix(-0.755,-0.656,0.656,-0.755,1.687,56.768)"
                   x="0"
                   y="0"
                   style="fill:#4f969a" />
              </g>
              <g
                 id="Group_744"
                 data-name="Group 744"
                 transform="translate(82.858,95.99)">
                <rect
                   id="Rectangle_152"
                   data-name="Rectangle 152"
                   width="81.276001"
                   height="2.234"
                   transform="rotate(-94.739,40.723196,37.50082)"
                   x="0"
                   y="0"
                   style="fill:#4f969a" />
              </g>
              <g
                 id="Group_745"
                 data-name="Group 745"
                 transform="translate(13.513,84.55)">
                <rect
                   id="Rectangle_153"
                   data-name="Rectangle 153"
                   width="2.2349999"
                   height="93.129997"
                   transform="rotate(-124.739,15.007433,27.119053)"
                   x="0"
                   y="0"
                   style="fill:#4f969a" />
              </g>
              <g
                 id="Group_746"
                 data-name="Group 746"
                 transform="translate(85.653)">
                <path
                   id="Path_1364"
                   data-name="Path 1364"
                   d="m 2206.258,1519.117 1.587,-1.573 -63.917,-64.473 v -83.891 h -2.234 v 84.811 z"
                   transform="translate(-2141.693,-1369.18)"
                   inkscape:connector-curvature="0"
                   style="fill:#4f969a" />
              </g>
            </g>
          </g>
          <g
             id="Group_749"
             data-name="Group 749">
            <path
               id="Path_1365"
               data-name="Path 1365"
               d="m 2206.727,1555.758 a 96.605,96.605 0 1 0 -48.893,-13.265 96.751,96.751 0 0 0 48.893,13.265 z m 0,-179.875 a 83.257,83.257 0 1 1 -83.234,83.234 83.328,83.328 0 0 1 83.234,-83.234 z"
               transform="translate(-2110.087,-1362.477)"
               inkscape:connector-curvature="0"
               style="fill:#004359" />
          </g>
        </g>
        <g
           id="Group_751"
           data-name="Group 751"
           transform="translate(309.263,85.576)">
          <path
             id="Path_1366"
             data-name="Path 1366"
             d="m 2172.965,1359.958 a 5.03,5.03 0 0 0 4.266,-0.44 v 0 c 45.218,-27.319 107.776,-17.053 125.872,-13.254 l 0.03,0.01 a 1.605,1.605 0 0 0 1.935,-1.571 v -3.534 a 5.452,5.452 0 0 0 -4.65,-5.4 c -9.789,-1.458 -32.66,-4.587 -45.438,-4.642 h -1.034 c -28.622,0 -53.341,5.122 -73.652,15.246 a 17.135,17.135 0 0 1 -13.327,0.822 l -5.574,-1.958 a 6.109,6.109 0 0 0 -7.789,3.74 v 0 a 3.946,3.946 0 0 0 2.414,5.03 z"
             transform="translate(-2153.38,-1331.124)"
             inkscape:connector-curvature="0"
             style="fill:#004359" />
        </g>
        <path
           id="Path_1367"
           data-name="Path 1367"
           d="m 2313.835,1291.113 c 0,0 1.816,-8.24 -3.352,-8.8 -5.168,-0.56 -24.02,3.492 -29.047,2.933 -5.027,-0.559 -31.283,-4.889 -35.892,-0.419 -4.609,4.47 -2.652,8.379 6.564,9.217 9.216,0.838 21.507,2.374 25,5.307 3.493,2.933 28.767,11.593 36.727,-8.238 z"
           transform="translate(-1942.961,-1245.548)"
           inkscape:connector-curvature="0"
           style="fill:#004359" />
        <path
           id="Path_1368"
           data-name="Path 1368"
           d="m 2360.905,1472.523 a 25.137,25.137 0 1 0 -25.137,25.138 25.137,25.137 0 0 0 25.137,-25.138 z"
           transform="translate(-2057.205,-1245.548)"
           inkscape:connector-curvature="0"
           style="fill:#004359" />
      </g>
      <path
         id="Path_1369"
         data-name="Path 1369"
         d="m 2444.341,1259.452 c 0,0 -8.231,-10.441 -12.729,-9.142 a 10.821,10.821 0 0 0 -8.217,10.791 c 0.19,1.448 0.1,7.155 3.547,8.375 a 9.424,9.424 0 0 0 8.626,-1.616 c 1.593,-1.337 8.773,-8.408 8.773,-8.408 z"
         transform="translate(-2253.379,-1079.553)"
         inkscape:connector-curvature="0"
         style="fill:#d9d1c9" />
      <path
         id="Path_1370"
         data-name="Path 1370"
         d="m 2327.72,1251.021 c 0,0 1.139,6.489 9.012,8.651 7.872,2.076 56.564,-18.413 68.156,-24.122 6.229,-3.115 15.227,-20.417 22.146,-35.557 1.645,-3.72 3.2,-7.266 4.586,-10.468 3.46,-8.046 5.71,-13.841 5.71,-13.841 0,-7.959 -8.786,-4.851 -16.745,-1.217 -2.423,1.125 -15.1,-4.236 -18.475,2.253 -1.556,3.028 -3.624,2.683 -5.181,6.057 -6.143,13.583 -11.766,28.9 -12.977,32.529 -2.162,6.488 -56.232,35.715 -56.232,35.715 z"
         transform="translate(-2150.719,-1079.553)"
         inkscape:connector-curvature="0"
         style="fill:#d9d1c9" />
      <path
         id="Path_1371"
         data-name="Path 1371"
         d="m 2439.251,1265.535 c 0,0 -8.186,-10.278 -12.728,-9.142 -10.7,2.674 -9.258,10.386 -9.069,11.835 0.189,1.449 0.95,6.11 4.4,7.331 a 9.424,9.424 0 0 0 8.626,-1.616 c 1.592,-1.337 8.771,-8.408 8.771,-8.408 z"
         transform="translate(-2242.207,-1079.553)"
         inkscape:connector-curvature="0"
         style="fill:#eaddd0" />
      <path
         id="Path_1372"
         data-name="Path 1372"
         d="m 2366.9,1162.586 -27.782,10.252 c -3.548,-3.447 -7.107,-8.931 -9.964,-13.941 -3.544,-6.226 -6,-11.724 -6,-11.724 l 19.408,-13.591 6.1,-4.271 c 0.388,12.383 18.238,33.275 18.238,33.275 z"
         transform="translate(-2075.721,-1079.553)"
         inkscape:connector-curvature="0"
         style="fill:#eaddd0" />
      <path
         id="Path_1373"
         data-name="Path 1373"
         d="m 2366.9,1136.023 c 0,0 -5.5,17.145 -20.971,22.874 -3.544,-6.226 -6,-11.724 -6,-11.724 l 19.408,-13.591 z"
         transform="translate(-2092.496,-1079.553)"
         inkscape:connector-curvature="0"
         style="fill:#eaddd0" />
      <path
         id="Path_1374"
         data-name="Path 1374"
         d="m 2341.947,1146.753 c 0,0 34.352,5.387 37.377,-16.058 3.025,-21.445 9.5,-35.191 -12.308,-39.537 -21.808,-4.346 -27.231,3.235 -29.981,10.147 -2.75,6.912 -3.946,43.495 4.912,45.448 z"
         transform="translate(-2103.308,-1079.553)"
         inkscape:connector-curvature="0"
         style="fill:#eaddd0" />
      <path
         id="Path_1375"
         data-name="Path 1375"
         d="m 2385.09,1087.252 a 5.952,5.952 0 0 0 -2.814,1.627 l -0.018,-0.026 c -0.088,-4.624 -4.628,-9.3 -4.628,-9.3 2.18,2.739 1.472,7.814 1.472,7.814 -6.469,-11.064 -37.964,-2.362 -40.916,-1.627 -2.952,0.735 -5.037,-3.694 -5.037,-3.694 -4.662,4.04 -6.437,13.925 -2.572,20.386 3.865,6.461 16.4,15.963 20.006,14.155 3.606,-1.808 3.616,1.928 3.428,7.176 -0.188,5.248 8.9,14.069 15.312,15.35 5.162,1.034 5.567,-2.5 6.976,-4.756 a 7.091,7.091 0 0 1 1.256,-1.517 c 7.03,-6.348 10.9,-19.032 9.329,-31.53 a 31.3,31.3 0 0 0 -3.829,-11.154 16.127,16.127 0 0 1 2.035,-2.904 z"
         transform="translate(-2101.365,-1079.553)"
         inkscape:connector-curvature="0"
         style="fill:#a67b52" />
      <path
         id="Path_1376"
         data-name="Path 1376"
         d="m 2283.066,1277.1 c 0.345,1.558 4.152,14.361 14.014,17.649 6.4,2.163 21.974,7.439 35.817,8.477 a 23.632,23.632 0 0 0 7.007,-9 c 7.958,-19.464 -5.018,-33.913 -5.018,-33.913 0,0 -27.165,6.235 -51.82,16.787 z"
         transform="translate(-2011.221,-1079.553)"
         inkscape:connector-curvature="0"
         style="fill:#807e7c" />
      <path
         id="Path_1377"
         data-name="Path 1377"
         d="m 2372.937,1231.956 c 0,0 27.832,32.057 2.274,68.1 -25.558,36.043 -67.17,65.127 -69.461,77.981 -4.433,24.877 -30.928,76.243 -43.544,101.656 l -10.814,-4.145 c 0,0 20.282,-120.446 27.49,-134.863 7.208,-14.417 44.561,-81.913 44.561,-81.913 z"
         transform="translate(-2023.07,-1079.553)"
         inkscape:connector-curvature="0"
         style="fill:#eaddd0" />
      <path
         id="Path_1378"
         data-name="Path 1378"
         d="m 2334.44,1181.16 c 2.682,0.865 9.17,3.288 10.9,6.23 1.816,2.941 20.849,-5.278 23.1,-12.978 -5.451,-5.969 -14.794,-11.072 -20.245,-9.343 -3.201,0.953 -8.395,7.786 -13.755,16.091 z"
         transform="translate(-2088.549,-1079.553)"
         inkscape:connector-curvature="0"
         style="fill:#ffd176" />
      <path
         id="Path_1379"
         data-name="Path 1379"
         d="m 2329.434,1241.814 c 0,0 -36.132,25.744 -60.284,24.3 0,0 -15.86,27.035 -19.375,35.957 0,0 41.093,20.546 62.451,16.762 0,0 27.846,-27.035 26.224,-45.96 -1.622,-18.925 -9.016,-31.059 -9.016,-31.059 z"
         transform="translate(-1973.962,-1079.553)"
         inkscape:connector-curvature="0"
         style="fill:#807e7c" />
      <path
         id="Path_1380"
         data-name="Path 1380"
         d="m 2260.1,1193.392 8.661,12.337 0.692,1.558 17.995,41.094 9.17,20.935 c 6.143,1.471 17.562,0.433 22.666,-1.384 27.858,-9.516 39.968,-26.126 39.968,-26.126 -16.177,-42.305 -38.584,-71.2 -43.169,-76.3 -7.959,-8.651 -28.809,-15.745 -28.809,-15.745 -5.71,5.883 -26.126,16.178 -26.126,16.178 -4.504,3.542 -1.048,27.453 -1.048,27.453 z"
         transform="translate(-2003.746,-1079.553)"
         inkscape:connector-curvature="0"
         style="fill:#ffd176" />
      <path
         id="Path_1381"
         data-name="Path 1381"
         d="m 2322.916,1207.287 17.995,41.094 c 13.669,-27.6 5.018,-67.653 5.018,-67.653 0,0 -21.975,19.033 -22.753,20.5 a 45.107,45.107 0 0 0 -0.26,6.059 z"
         transform="translate(-2057.214,-1079.553)"
         inkscape:connector-curvature="0"
         style="fill:#ffd176" />
      <path
         id="Path_1382"
         data-name="Path 1382"
         d="m 2321.637,1257.1 c 0,0 1.14,6.489 9.012,8.652 7.873,2.076 56.564,-18.413 68.157,-24.122 6.229,-3.115 15.225,-20.417 22.147,-35.557 1.644,-3.72 3.2,-7.267 4.585,-10.468 3.46,-8.045 5.71,-13.841 5.71,-13.841 0,-7.96 -18.773,-18.774 -26.732,-15.14 -2.422,1.125 -5.623,6.056 -9,12.544 -1.558,3.028 -3.114,6.315 -4.672,9.689 -6.143,13.582 -11.766,28.9 -12.977,32.529 -2.16,6.491 -56.23,35.714 -56.23,35.714 z"
         transform="translate(-2138.554,-1079.553)"
         inkscape:connector-curvature="0"
         style="fill:#eaddd0" />
      <path
         id="Path_1383"
         data-name="Path 1383"
         d="m 2321.637,1188.86 c 7.267,3.288 20.33,9.69 30.106,17.216 1.644,-3.72 3.2,-7.267 4.585,-10.468 3.46,-8.045 5.71,-13.841 5.71,-13.841 0,-7.96 -18.773,-18.774 -26.732,-15.14 -2.422,1.125 -5.623,6.056 -9,12.544 -1.555,3.029 -3.111,6.315 -4.669,9.689 z"
         transform="translate(-2069.344,-1079.553)"
         inkscape:connector-curvature="0"
         style="fill:#ffd176" />
      <g
         id="Group_752"
         data-name="Group 752"
         transform="translate(197.847,389.253)">
        <path
           id="Path_1384"
           data-name="Path 1384"
           d="m 2411.224,1489.549 h -6.471 c -2.168,-0.3 -3.769,-0.857 -5.991,-1.114 -3.377,-0.391 -4.931,0.833 -5.24,1.114 a 0.8,0.8 0 0 0 -0.06,0.057 h -27.488 c -0.692,-0.873 -0.028,-2.9 0.623,-4.384 a 3.765,3.765 0 0 1 2.573,-2.08 c 2.915,-0.746 8.662,-1.412 13.924,-5.624 2.961,-2.366 14.3,-8.7 14.3,-8.7 l 0.059,-0.012 c 0.25,0 1.435,0.326 6.592,4.176 2.665,1.987 7.208,-2.806 7.208,-2.806 a 5.887,5.887 0 0 1 1.49,1.787 5.418,5.418 0 0 1 0.59,3.731 c -0.41,2.191 0.913,6.261 1.97,9.014 0.64,1.668 1.18,2.851 1.18,2.851 0,0 0.308,1.375 -5.259,1.99 z"
           transform="translate(-2365.68,-1468.806)"
           inkscape:connector-curvature="0"
           style="fill:#47aa7c" />
        <path
           id="Path_1385"
           data-name="Path 1385"
           d="m 2384.772,1471.963 c -1.545,0.962 -4.806,2.858 -6.969,3.107 -2.92,0.339 -8.38,-6.252 -8.38,-6.252 l 0.059,-0.012 c 0.25,0 1.435,0.326 6.592,4.176 2.665,1.987 7.208,-2.806 7.208,-2.806 a 5.887,5.887 0 0 1 1.49,1.787 z"
           transform="translate(-2337.712,-1468.806)"
           inkscape:connector-curvature="0"
           style="fill:#47aa7c" />
        <path
           id="Path_1386"
           data-name="Path 1386"
           d="m 2411.224,1489.549 h -6.471 c -2.168,-0.3 -3.769,-0.857 -5.991,-1.114 -3.377,-0.391 -4.931,0.833 -5.24,1.114 a 0.8,0.8 0 0 0 -0.06,0.057 h -27.488 c -0.692,-0.873 -0.028,-2.9 0.623,-4.384 0.835,-0.657 1.069,2.85 1.531,3.409 0.462,0.559 22.424,0.2 23.692,-0.611 1.268,-0.811 5.073,-2.244 10.377,-1.122 4.617,0.975 11.42,-1.525 13.1,-2.19 0.64,1.668 1.18,2.851 1.18,2.851 0,0 0.314,1.375 -5.253,1.99 z"
           transform="translate(-2365.68,-1468.806)"
           inkscape:connector-curvature="0"
           style="fill:#47aa7c" />
      </g>
    </g>
  </g>
</svg>
