<svg xmlns="http://www.w3.org/2000/svg" width="2800.509" height="462.818" viewBox="0 0 2800.509 462.818">
  <path id="Union_3" data-name="Union 3" d="M339.9-3434.927c-72.731-7.009-161.507-26.594-168.337-47.042-3.762-11.255,1.889-20.673-8.339-32.8-10.74-12.743-21.851-24.961-49.944-35.848-8.485-3.289-17.111-6.671-25.457-10.129-46.781-9.944-78.594-23.232-80.15-38.363-1.253-12.2,16.693-23.949,30.31-35.69,54.1-46.653-68.889-51.164-30.373-137.493,5.334-11.956,51.691-31.21,34.986-42.518-9.026-6.108-21.854-11.906-27.871-18.231-17.409-18.3,29.922-33.014,93.53-43.589,39.777-6.614,83.248-4.847,128.953-3.081,27.381,1.058,55.565,2.116,84.237,1.373,256.821-6.659,515.6-3,774.186.655,289.03,4.087,577.823,8.174,863.383-2.144,112.349-4.059,223.31-11.15,336.821-12.077,55.829-.455,112.82.645,164.777,5.652,72.73,7.009,161.506,26.594,168.336,47.041,3.763,11.255-1.887,20.673,8.339,32.8,10.741,12.743,21.851,24.96,49.944,35.849,8.482,3.288,17.113,6.672,25.456,10.128,46.781,9.944,78.6,23.232,80.151,38.363,1.254,12.2-16.693,23.949-30.31,35.69-54.1,46.653,68.889,51.164,30.374,137.494-5.334,11.955-51.692,31.209-34.987,42.518,9.027,6.108,21.854,11.907,27.872,18.232,17.408,18.3-29.923,33.014-93.53,43.588-39.778,6.613-83.249,4.846-128.954,3.08-27.381-1.058-55.565-2.116-84.236-1.373-256.823,6.659-515.6,3-774.189-.655-289.029-4.087-577.821-8.174-863.38,2.143-112.349,4.06-223.309,11.15-336.82,12.077q-11.143.091-22.337.094C433.765-3429.181,384.942-3430.587,339.9-3434.927Z" transform="translate(0 3892)" fill="#004359"/>
</svg>
