<svg xmlns="http://www.w3.org/2000/svg" width="146" height="151.032" viewBox="0 0 146 151.032">
  <g id="Group_665" data-name="Group 665" transform="translate(-1386 -2340.234)">
    <g id="Group_651" data-name="Group 651" transform="translate(1386 2365.282)">
      <ellipse id="Ellipse_11" data-name="Ellipse 11" cx="44.5" cy="45.5" rx="44.5" ry="45.5" transform="translate(57 -0.282)" fill="#47aa7c"/>
      <circle id="Ellipse_12" data-name="Ellipse 12" cx="19" cy="19" r="19" transform="translate(0 52.718)" fill="#4f969a"/>
    </g>
    <g id="Group_650" data-name="Group 650" transform="translate(1243.508 2120.734)">
      <g id="Group_627" data-name="Group 627" transform="translate(144.286 221)">
        <g id="Group_623" data-name="Group 623" transform="translate(21.362)">
          <g id="Group_620" data-name="Group 620">
            <g id="Group_619" data-name="Group 619" transform="translate(9.812 21.194)">
              <g id="Group_614" data-name="Group 614" transform="translate(28.258 0)">
                <line id="Line_4" data-name="Line 4" y2="4" transform="translate(-0.226 38.072)" fill="none" stroke="#004359" stroke-width="3"/>
                <line id="Line_5" data-name="Line 5" y2="5" transform="translate(-0.226 28.072)" fill="none" stroke="#004359" stroke-width="3"/>
                <line id="Line_6" data-name="Line 6" y2="4" transform="translate(-0.226 19.072)" fill="none" stroke="#004359" stroke-width="3"/>
                <line id="Line_7" data-name="Line 7" y2="5" transform="translate(-0.226 9.072)" fill="none" stroke="#004359" stroke-width="3"/>
                <line id="Line_8" data-name="Line 8" y2="5" transform="translate(-0.226 0.072)" fill="none" stroke="#004359" stroke-width="3"/>
                <line id="Line_9" data-name="Line 9" y2="5" transform="translate(-0.226 47.072)" fill="none" stroke="#004359" stroke-width="3"/>
                <line id="Line_10" data-name="Line 10" y2="4" transform="translate(-0.226 58.072)" fill="none" stroke="#004359" stroke-width="3"/>
                <line id="Line_11" data-name="Line 11" y2="5" transform="translate(-0.226 67.072)" fill="none" stroke="#004359" stroke-width="3"/>
                <line id="Line_12" data-name="Line 12" y2="5" transform="translate(-0.226 76.072)" fill="none" stroke="#004359" stroke-width="3"/>
                <line id="Line_13" data-name="Line 13" y2="5" transform="translate(-0.226 86.072)" fill="none" stroke="#004359" stroke-width="3"/>
                <line id="Line_14" data-name="Line 14" y2="5" transform="translate(-0.226 95.072)" fill="none" stroke="#004359" stroke-width="3"/>
                <line id="Line_15" data-name="Line 15" y2="4" transform="translate(-0.226 105.072)" fill="none" stroke="#004359" stroke-width="3"/>
              </g>
              <g id="Group_615" data-name="Group 615" transform="translate(37.677 0)">
                <line id="Line_16" data-name="Line 16" y2="4" transform="translate(0.355 38.072)" fill="none" stroke="#004359" stroke-width="3"/>
                <line id="Line_17" data-name="Line 17" y2="4" transform="translate(9.355 38.072)" fill="none" stroke="#004359" stroke-width="3"/>
                <line id="Line_18" data-name="Line 18" y2="5" transform="translate(0.355 28.072)" fill="none" stroke="#004359" stroke-width="3"/>
                <line id="Line_19" data-name="Line 19" y2="4" transform="translate(0.355 19.072)" fill="none" stroke="#004359" stroke-width="3"/>
                <line id="Line_20" data-name="Line 20" y2="5" transform="translate(0.355 9.072)" fill="none" stroke="#004359" stroke-width="3"/>
                <line id="Line_21" data-name="Line 21" y2="5" transform="translate(0.355 0.072)" fill="none" stroke="#004359" stroke-width="3"/>
                <line id="Line_22" data-name="Line 22" y2="5" transform="translate(0.355 47.072)" fill="none" stroke="#004359" stroke-width="3"/>
                <line id="Line_23" data-name="Line 23" y2="4" transform="translate(0.355 58.072)" fill="none" stroke="#004359" stroke-width="3"/>
                <line id="Line_24" data-name="Line 24" y2="5" transform="translate(0.355 67.072)" fill="none" stroke="#004359" stroke-width="3"/>
                <line id="Line_25" data-name="Line 25" y2="5" transform="translate(0.355 76.072)" fill="none" stroke="#004359" stroke-width="3"/>
                <line id="Line_26" data-name="Line 26" y2="5" transform="translate(0.355 86.072)" fill="none" stroke="#004359" stroke-width="3"/>
                <line id="Line_27" data-name="Line 27" y2="5" transform="translate(0.355 95.072)" fill="none" stroke="#004359" stroke-width="3"/>
                <line id="Line_28" data-name="Line 28" y2="4" transform="translate(0.355 105.072)" fill="none" stroke="#004359" stroke-width="3"/>
              </g>
              <line id="Line_29" data-name="Line 29" y2="5" transform="translate(47.032 28.072)" fill="none" stroke="#004359" stroke-width="3"/>
              <g id="Group_616" data-name="Group 616" transform="translate(18.839 9.419)">
                <line id="Line_30" data-name="Line 30" y2="4" transform="translate(0.194 28.653)" fill="none" stroke="#004359" stroke-width="3"/>
                <line id="Line_31" data-name="Line 31" y2="5" transform="translate(0.194 18.653)" fill="none" stroke="#004359" stroke-width="3"/>
                <line id="Line_32" data-name="Line 32" y2="4" transform="translate(0.194 9.653)" fill="none" stroke="#004359" stroke-width="3"/>
                <line id="Line_33" data-name="Line 33" y2="5" transform="translate(0.194 -0.347)" fill="none" stroke="#004359" stroke-width="3"/>
                <line id="Line_34" data-name="Line 34" y2="5" transform="translate(0.194 37.653)" fill="none" stroke="#004359" stroke-width="3"/>
                <line id="Line_35" data-name="Line 35" y2="4" transform="translate(0.194 48.653)" fill="none" stroke="#004359" stroke-width="3"/>
                <line id="Line_36" data-name="Line 36" y2="5" transform="translate(0.194 57.653)" fill="none" stroke="#004359" stroke-width="3"/>
                <line id="Line_37" data-name="Line 37" y2="5" transform="translate(0.194 66.653)" fill="none" stroke="#004359" stroke-width="3"/>
                <line id="Line_38" data-name="Line 38" y2="5" transform="translate(0.194 76.653)" fill="none" stroke="#004359" stroke-width="3"/>
                <line id="Line_39" data-name="Line 39" y2="5" transform="translate(0.194 85.653)" fill="none" stroke="#004359" stroke-width="3"/>
                <line id="Line_40" data-name="Line 40" y2="4" transform="translate(0.194 95.653)" fill="none" stroke="#004359" stroke-width="3"/>
              </g>
              <g id="Group_617" data-name="Group 617" transform="translate(9.419 37.677)">
                <line id="Line_41" data-name="Line 41" y2="4" transform="translate(-0.387 0.395)" fill="none" stroke="#004359" stroke-width="3"/>
                <line id="Line_42" data-name="Line 42" y2="5" transform="translate(-0.387 9.395)" fill="none" stroke="#004359" stroke-width="3"/>
                <line id="Line_43" data-name="Line 43" y2="4" transform="translate(-0.387 20.395)" fill="none" stroke="#004359" stroke-width="3"/>
                <line id="Line_44" data-name="Line 44" y2="5" transform="translate(-0.387 29.395)" fill="none" stroke="#004359" stroke-width="3"/>
                <line id="Line_45" data-name="Line 45" y2="5" transform="translate(-0.387 38.395)" fill="none" stroke="#004359" stroke-width="3"/>
                <line id="Line_46" data-name="Line 46" y2="5" transform="translate(-0.387 48.395)" fill="none" stroke="#004359" stroke-width="3"/>
                <line id="Line_47" data-name="Line 47" y2="5" transform="translate(-0.387 57.395)" fill="none" stroke="#004359" stroke-width="3"/>
                <line id="Line_48" data-name="Line 48" y2="4" transform="translate(-0.387 67.395)" fill="none" stroke="#004359" stroke-width="3"/>
              </g>
              <g id="Group_618" data-name="Group 618" transform="translate(0 47.096)">
                <line id="Line_49" data-name="Line 49" y2="5" transform="translate(0.032 -0.024)" fill="none" stroke="#004359" stroke-width="3"/>
                <line id="Line_50" data-name="Line 50" y2="4" transform="translate(0.032 10.976)" fill="none" stroke="#004359" stroke-width="3"/>
                <line id="Line_51" data-name="Line 51" y2="5" transform="translate(0.032 19.976)" fill="none" stroke="#004359" stroke-width="3"/>
              </g>
            </g>
            <path id="Path_1177" data-name="Path 1177" d="M218.459,275.591V263.724l-9.494-7.121V221h-2.374l-35.6,23.735v26.109L152,282.712v21.362" transform="translate(-152 -221)" fill="none" stroke="#004359" stroke-width="3"/>
          </g>
          <g id="Group_622" data-name="Group 622" transform="translate(56.965 61.712)">
            <path id="Path_1178" data-name="Path 1178" d="M213.976,291.35V251H176v66.459" transform="translate(-176 -241.506)" fill="none" stroke="#004359" stroke-width="3"/>
            <path id="Path_1179" data-name="Path 1179" d="M198.988,256.494V247H180v9.494" transform="translate(-170.506 -247)" fill="none" stroke="#004359" stroke-width="3"/>
            <g id="Group_621" data-name="Group 621" transform="translate(7.008 19.53)">
              <line id="Line_52" data-name="Line 52" x2="24" transform="translate(-0.129 0.025)" fill="none" stroke="#004359" stroke-width="3"/>
              <line id="Line_53" data-name="Line 53" x2="24" transform="translate(-0.129 9.025)" fill="none" stroke="#004359" stroke-width="3"/>
              <line id="Line_54" data-name="Line 54" x2="24" transform="translate(-0.129 19.025)" fill="none" stroke="#004359" stroke-width="3"/>
              <line id="Line_55" data-name="Line 55" x2="24" transform="translate(-0.129 28.025)" fill="none" stroke="#004359" stroke-width="3"/>
              <line id="Line_56" data-name="Line 56" x2="17" transform="translate(-0.129 38.025)" fill="none" stroke="#004359" stroke-width="3"/>
              <line id="Line_57" data-name="Line 57" x2="10" transform="translate(-0.129 47.025)" fill="none" stroke="#004359" stroke-width="3"/>
            </g>
          </g>
        </g>
        <g id="Group_624" data-name="Group 624" transform="translate(102.062 118.676)">
          <path id="Path_1180" data-name="Path 1180" d="M212.109,280.494a4.7,4.7,0,0,0-2.442.7c.014-.235.069-.456.069-.7a9.494,9.494,0,1,0-18.988,0,4.747,4.747,0,1,0,0,9.494h21.362a4.747,4.747,0,1,0,0-9.494Z" transform="translate(-186 -271)" fill="none" stroke="#004359" stroke-linejoin="round" stroke-width="3"/>
        </g>
        <g id="Group_625" data-name="Group 625" transform="translate(11.868 90.194)">
          <path id="Path_1181" data-name="Path 1181" d="M157.494,259S148,280.362,148,287.482a9.494,9.494,0,0,0,18.988,0C166.988,280.362,157.494,259,157.494,259Z" transform="translate(-148 -259)" fill="none" stroke="#004359" stroke-linejoin="round" stroke-width="3"/>
          <line id="Line_58" data-name="Line 58" y2="21" transform="translate(10.338 26.072)" fill="none" stroke="#004359" stroke-width="3"/>
        </g>
        <g id="Group_626" data-name="Group 626" transform="translate(0 137.665)">
          <path id="Path_1182" data-name="Path 1182" d="M143,290.868V279H280.665v11.868" transform="translate(-143 -279)" fill="none" stroke="#004359" stroke-width="3"/>
        </g>
      </g>
    </g>
  </g>
</svg>
