<svg id="Group_916" data-name="Group 916" xmlns="http://www.w3.org/2000/svg" width="108.09" height="67.885" viewBox="0 0 108.09 67.885">
  <g id="Group_12" data-name="Group 12" transform="translate(0 0)">
    <path id="Path_15" data-name="Path 15" d="M996.345,206.967c-2.735.018-5.514-.051-8.2-.117-2.293-.057-4.579-.113-6.846-.119-4.12-.01-8.3-.208-12.347-.4-1.963-.093-3.921-.186-5.869-.258-1.667-.06-3.287-.078-4.881-.1a63.873,63.873,0,0,1-13.52-1.122c-.828-.185-3.453-.411-5.563-.594-1.242-.107-2.382-.206-3.076-.286a10.316,10.316,0,0,1-2.914.455h0a10.074,10.074,0,0,1-7.354-3.32c-3.935-3.987-6.2-11.043-6.109-15.558.1-4.878,6.761-11.785,11.5-14.589,3.466-2.044,9.5-2.715,12.146-2.916-.805-5.1.991-10.732,5.128-15.973,6.68-8.464,18.04-13.863,27.278-12.871,8.441.908,16.283,6.286,20.977,14.386,3.578,6.176,4.779,12.884,3.423,18.543a13.4,13.4,0,0,1,4.567-.7,26.143,26.143,0,0,1,8.156,1.234c6.766,2.588,10.066,6.164,13.79,11.859,2.825,4.317-.176,12.487-3.43,16.722-2.642,3.441-6.916,3.889-11.05,4.324-1.205.126-2.452.258-3.631.461A73.2,73.2,0,0,1,996.345,206.967Z" transform="translate(-919.66 -139.085)" fill="#fff"/>
  </g>
</svg>
