<svg xmlns="http://www.w3.org/2000/svg" width="157.167" height="152.5" viewBox="0 0 157.167 152.5">
  <g id="Group_770" data-name="Group 770" transform="translate(-1036.5 -1908.38)">
    <circle id="Ellipse_24" data-name="Ellipse 24" cx="37.5" cy="37.5" r="37.5" transform="translate(1036.5 1985.88)" fill="#4f969a"/>
    <g id="Group_664" data-name="Group 664" transform="translate(6.834 -435.221)">
      <ellipse id="Ellipse_21" data-name="Ellipse 21" cx="16.763" cy="16.31" rx="16.763" ry="16.31" transform="translate(1139.634 2343.601)" fill="#47aa7c"/>
      <g id="Group_638" data-name="Group 638" transform="translate(819.667 2019.293)">
        <g id="Group_637" data-name="Group 637" transform="translate(237 329)">
          <g id="Group_630" data-name="Group 630" transform="translate(0 64.333)">
            <line id="Line_59" data-name="Line 59" y2="49.836" transform="translate(9.967 0.322)" fill="none" stroke="#004359" stroke-width="3"/>
            <line id="Line_60" data-name="Line 60" y2="48.024" transform="translate(118.7 2.134)" fill="none" stroke="#004359" stroke-width="3"/>
            <path id="Path_1183" data-name="Path 1183" d="M317.936,384l-4.151,4.151h-24.9L284.731,384H237v4.151a8.3,8.3,0,0,0,8.3,8.3H357.366a8.3,8.3,0,0,0,8.3-8.3V384Z" transform="translate(-237 -334.194)" fill="none" stroke="#004359" stroke-width="3"/>
            <path id="Path_1184" data-name="Path 1184" d="M337.312,362.191v39.315H246V360" transform="translate(-227.323 -360)" fill="none" stroke="#004359" stroke-width="3"/>
          </g>
          <g id="Group_631" data-name="Group 631" transform="translate(26.979 66.467)">
            <circle id="Ellipse_15" data-name="Ellipse 15" cx="8.155" cy="8.155" r="8.155" transform="translate(6.547 0)" fill="none" stroke="#004359" stroke-width="3"/>
            <path id="Path_1185" data-name="Path 1185" d="M279.054,381.3a8.3,8.3,0,0,0-8.3-8.3H258.3a8.3,8.3,0,0,0-8.3,8.3v6.226h29.054Z" transform="translate(-250 -348.155)" fill="none" stroke="#004359" stroke-width="3"/>
          </g>
          <g id="Group_633" data-name="Group 633" transform="translate(58.108 14.527)">
            <path id="Path_1186" data-name="Path 1186" d="M275.376,368.527V362.3h-6.226A4.152,4.152,0,0,1,265,358.15V354" transform="translate(-265 -316.645)" fill="none" stroke="#004359" stroke-width="3"/>
            <path id="Path_1187" data-name="Path 1187" d="M274,336h47.731a4.152,4.152,0,0,1,4.151,4.151v37.355a4.152,4.152,0,0,1-4.151,4.151H282.3" transform="translate(-255.323 -336)" fill="none" stroke="#004359" stroke-width="3"/>
            <path id="Path_1188" data-name="Path 1188" d="M286.6,358h-4.151L270,370.452v-6.226" transform="translate(-259.624 -312.344)" fill="none" stroke="#004359" stroke-linejoin="round" stroke-width="3"/>
            <g id="Group_632" data-name="Group 632" transform="translate(18.911 14.79)">
              <line id="Line_61" data-name="Line 61" x2="16.31" transform="translate(0 0)" fill="none" stroke="#004359" stroke-width="3"/>
              <line id="Line_62" data-name="Line 62" x2="43.493" transform="translate(0 8.155)" fill="none" stroke="#004359" stroke-width="3"/>
              <line id="Line_63" data-name="Line 63" x2="20.84" transform="translate(0 16.31)" fill="none" stroke="#004359" stroke-width="3"/>
              <line id="Line_64" data-name="Line 64" x2="14.498" transform="translate(24.465 16.31)" fill="none" stroke="#004359" stroke-width="3"/>
            </g>
          </g>
          <g id="Group_634" data-name="Group 634" transform="translate(66.146 82.777)">
            <line id="Line_65" data-name="Line 65" x2="4.531" transform="translate(0)" fill="none" stroke="#004359" stroke-width="3"/>
            <line id="Line_66" data-name="Line 66" x2="4.531" transform="translate(8.155)" fill="none" stroke="#004359" stroke-width="3"/>
            <line id="Line_67" data-name="Line 67" x2="3.624" transform="translate(17.216)" fill="none" stroke="#004359" stroke-width="3"/>
          </g>
          <g id="Group_636" data-name="Group 636">
            <path id="Path_1189" data-name="Path 1189" d="M263.978,374.656h39.43a4.152,4.152,0,0,0,4.151-4.151V333.15A4.152,4.152,0,0,0,303.409,329H241.151A4.152,4.152,0,0,0,237,333.15v37.355a4.152,4.152,0,0,0,4.151,4.151h6.226v6.226" transform="translate(-237 -329)" fill="none" stroke="#004359" stroke-width="3"/>
            <path id="Path_1190" data-name="Path 1190" d="M242,357.226v6.226L254.452,351H258.6" transform="translate(-231.624 -305.344)" fill="none" stroke="#004359" stroke-linejoin="round" stroke-width="3"/>
            <g id="Group_635" data-name="Group 635" transform="translate(8.155 14.819)">
              <line id="Line_68" data-name="Line 68" x2="46.211" transform="translate(0 0)" fill="none" stroke="#004359" stroke-width="3"/>
              <line id="Line_69" data-name="Line 69" x2="14.498" transform="translate(0 8.155)" fill="none" stroke="#004359" stroke-width="3"/>
              <line id="Line_70" data-name="Line 70" x2="35.338" transform="translate(19.028 8.155)" fill="none" stroke="#004359" stroke-width="3"/>
              <line id="Line_71" data-name="Line 71" x2="27.183" transform="translate(0 16.31)" fill="none" stroke="#004359" stroke-width="3"/>
              <line id="Line_72" data-name="Line 72" x2="11.779" transform="translate(31.714 16.31)" fill="none" stroke="#004359" stroke-width="3"/>
            </g>
          </g>
        </g>
      </g>
    </g>
  </g>
</svg>
