<?xml version="1.0" encoding="UTF-8" standalone="no"?>
<svg
   xmlns:dc="http://purl.org/dc/elements/1.1/"
   xmlns:cc="http://creativecommons.org/ns#"
   xmlns:rdf="http://www.w3.org/1999/02/22-rdf-syntax-ns#"
   xmlns:svg="http://www.w3.org/2000/svg"
   xmlns="http://www.w3.org/2000/svg"
   xmlns:sodipodi="http://sodipodi.sourceforge.net/DTD/sodipodi-0.dtd"
   xmlns:inkscape="http://www.inkscape.org/namespaces/inkscape"
   width="904.941"
   height="614.002"
   viewBox="0 0 904.941 614.002"
   version="1.1"
   id="svg69"
   sodipodi:docname="family.svg"
   inkscape:version="0.92.3 (2405546, 2018-03-11)">
  <metadata
     id="metadata75">
    <rdf:RDF>
      <cc:Work
         rdf:about="">
        <dc:format>image/svg+xml</dc:format>
        <dc:type
           rdf:resource="http://purl.org/dc/dcmitype/StillImage" />
      </cc:Work>
    </rdf:RDF>
  </metadata>
  <defs
     id="defs73" />
  <sodipodi:namedview
     pagecolor="#ffffff"
     bordercolor="#666666"
     borderopacity="1"
     objecttolerance="10"
     gridtolerance="10"
     guidetolerance="10"
     inkscape:pageopacity="0"
     inkscape:pageshadow="2"
     inkscape:window-width="1533"
     inkscape:window-height="801"
     id="namedview71"
     showgrid="false"
     inkscape:zoom="0.63"
     inkscape:cx="452.47049"
     inkscape:cy="307.00101"
     inkscape:window-x="0"
     inkscape:window-y="0"
     inkscape:window-maximized="0"
     inkscape:current-layer="svg69" />
  <g
     id="Group_762"
     data-name="Group 762"
     transform="translate(0.22422222,-2899.5873)">
    <g
       id="Group_761"
       data-name="Group 761"
       transform="translate(-78.002,3457.303)">
      <path
         id="Path_1388"
         data-name="Path 1388"
         d="m 128.285,953.1 c 0,0 225.762,-8.505 364.485,0 138.723,8.505 115.671,21.143 249.491,17.589 133.82,-3.554 356.507,9.81 272.543,33.327 0,0 -886.519,-0.336 -886.519,0 z"
         transform="translate(-128.285,-949.321)"
         inkscape:connector-curvature="0"
         style="fill:#d8d8d8" />
    </g>
    <g
       id="Group_710"
       data-name="Group 710"
       transform="translate(-17.095,2898)">
      <path
         id="Path_1279"
         data-name="Path 1279"
         d="m 1039.651,974.96 c 0,0 11.008,4.006 15.712,22.1 4.704,18.094 16.474,88.8 6.027,88.8 -10.447,0 -22.153,-26.15 -22.153,-26.15 z"
         transform="translate(-762.206,-851.51)"
         inkscape:connector-curvature="0"
         style="fill:#d9d1c9" />
      <path
         id="Path_1280"
         data-name="Path 1280"
         d="m 940.1,1038.851 40.219,73.812 -6.237,6.416 -45.977,-43.136 z"
         transform="translate(-529.532,-830.652)"
         inkscape:connector-curvature="0"
         style="fill:#eaddd0" />
      <path
         id="Path_1281"
         data-name="Path 1281"
         d="m 1033.236,1099.3 c 0,0 -2.776,34.65 -6.041,76.3 -4.437,56.578 -21.323,197.556 -21.323,197.556 0,0 3.579,5.621 -13.8,1.959 0,0 -21.3,-48.019 -25.718,-103.253 q -0.1,-1.359 -0.206,-2.73 C 962.04,1212.9 955.641,1094.5 955.641,1094.5 Z"
         transform="translate(-618.969,-812.486)"
         inkscape:connector-curvature="0"
         style="fill:#00979a" />
      <path
         id="Path_1282"
         data-name="Path 1282"
         d="m 1033.47,1089.089 c 0,0 -3.724,46.623 -6.989,88.274 l -60.837,96.262 q -0.1,-1.359 -0.206,-2.73 c -4.113,-56.229 -10.512,-174.633 -10.512,-174.633 z"
         transform="translate(-618.254,-814.251)"
         inkscape:connector-curvature="0"
         style="fill:#068480" />
      <path
         id="Path_1283"
         data-name="Path 1283"
         d="m 1076.067,1087.251 -85.949,284.006 c 0,0 -12.315,7.6 -14.689,2.732 0,0 -9.2,-121.72 9.008,-152.124 10.291,-17.18 9.285,-58.648 9.476,-75.118 0.539,-46.236 9.724,-68.253 9.724,-68.253 z"
         transform="translate(-684.96,-817.71)"
         inkscape:connector-curvature="0"
         style="fill:#00979a" />
      <path
         id="Path_1284"
         data-name="Path 1284"
         d="m 1074.011,1337.584 c 0,0 -20.374,2.992 -27.05,-2.016 -0.787,-0.588 -3.942,-7.135 -3.973,-7.205 -0.253,-0.526 -1.622,-2.9 -6.021,-3.75 -2.894,-0.564 -5.2,-0.227 -8,-0.922 a 73.222,73.222 0 0 1 -8.076,-2.686 c -6.81,-2.854 -5.628,-5 -5.628,-5 0,0 1.226,-1.45 2.815,-3.534 0.43,-0.566 0.889,-1.184 1.348,-1.833 2.356,-3.274 4.916,-7.346 5.348,-10.072 a 8.986,8.986 0 0 1 2.492,-5.025 8.494,8.494 0 0 1 2.7,-1.9 c 0,0 3.413,8.654 7.679,6.956 8.245,-3.293 9.874,-3.25 10.186,-3.155 l 0.074,0.042 c 0,0 8.761,12.595 11.345,17.162 4.59,8.138 9.452,10.8 12.608,13.253 a 7.737,7.737 0 0 1 1.881,2.105 c 1.888,3.079 1.295,6.822 0.272,7.58 z"
         transform="translate(-739.685,-747.47)"
         inkscape:connector-curvature="0"
         style="fill:#233862" />
      <path
         id="Path_1285"
         data-name="Path 1285"
         d="m 950.3,1330.744 h 8.513 c 2.852,-0.448 4.958,-1.273 7.883,-1.656 4.441,-0.583 6.487,1.237 6.892,1.656 0.054,0.056 0.08,0.085 0.08,0.085 h 36.165 c 0.91,-1.3 0.036,-4.308 -0.82,-6.522 a 5.139,5.139 0 0 0 -3.385,-3.095 c -3.835,-1.112 -11.4,-2.1 -18.318,-8.369 -3.9,-3.519 -18.812,-12.942 -18.812,-12.942 l -0.078,-0.019 c -0.328,0.01 -1.888,0.486 -8.671,6.213 -3.507,2.955 -9.484,-4.174 -9.484,-4.174 a 8.5,8.5 0 0 0 -1.96,2.658 8.987,8.987 0 0 0 -0.777,5.551 c 0.541,3.259 -1.2,9.314 -2.591,13.411 -0.842,2.482 -1.553,4.242 -1.553,4.242 0,0 -0.408,2.044 6.916,2.961 z"
         transform="translate(-579.684,-745.435)"
         inkscape:connector-curvature="0"
         style="fill:#233862" />
      <path
         id="Path_1286"
         data-name="Path 1286"
         d="m 973.3,957.471 c 0,0 33.886,16.678 53.47,10.5 a 46.979,46.979 0 0 0 -13.226,-10.783 c 0.48,-2.851 0.865,-5.456 1.166,-7.776 a 121.768,121.768 0 0 0 1.126,-13.174 l -20.77,-16.738 -4.659,-3.754 a 59.024,59.024 0 0 1 -0.635,11.044 c -0.038,0.269 -0.078,0.536 -0.122,0.8 -3.375,20.141 -16.35,29.881 -16.35,29.881 z"
         transform="translate(-635.917,-870.843)"
         inkscape:connector-curvature="0"
         style="fill:#eaddd0" />
      <path
         id="Path_1287"
         data-name="Path 1287"
         d="m 953.321,1128.4 c -0.1,2.16 6.8,4.4 8.732,5.261 8.568,3.844 17.122,5.25 25.557,7.488 a 111.639,111.639 0 0 0 18.155,3.291 c 18.145,1.862 39.587,-2.226 46.944,-2.125 a 3.2,3.2 0 0 0 2.058,-0.781 c 0.491,-0.4 0.882,-22.556 0.491,-50.508 0,-1.077 0,-2.26 -0.1,-3.336 v -0.39 c -0.1,-10.889 -0.5,-22.362 -0.987,-33.736 -1.076,-25.106 -3.034,-49.33 -6.375,-62.768 -3.923,-15.785 -12.941,-26.183 -21.18,-33.83 l -5.854,-5.825 a 1.576,1.576 0 0 0 -1.4,-0.427 c -6.55,1.207 -13.721,1.108 -20.6,-2.281 -7.748,-3.822 -16.181,-7.944 -17.554,-6.963 -16.081,12.015 -24.085,47.519 -23.935,87.88 0.007,1.273 0.017,2.556 0.034,3.839 0.072,4.168 0.223,8.383 0.463,12.623 1.751,29.78 -1.959,52.746 -2.986,67.756 -0.284,4.318 -1.397,12.47 -1.463,14.832 z"
         transform="translate(-638.071,-862.491)"
         inkscape:connector-curvature="0"
         style="fill:#ffffff" />
      <path
         id="Path_1288"
         data-name="Path 1288"
         d="m 981.539,926.354 c 0,0 0.056,0.106 0.167,0.306 1.311,2.348 10.263,17.487 25.056,21.826 a 121.768,121.768 0 0 0 1.126,-13.174 l -20.766,-16.74 a 58.473,58.473 0 0 0 -5.294,7.29 c -0.189,0.318 -0.289,0.492 -0.289,0.492 z"
         transform="translate(-627.973,-869.919)"
         inkscape:connector-curvature="0"
         style="fill:#eaddd0" />
      <path
         id="Path_1289"
         data-name="Path 1289"
         d="m 1010.956,944.012 c 0,0 -32.349,5.374 -35.385,-14.822 -3.036,-20.196 -9.256,-33.106 11.268,-37.39 20.524,-4.284 25.706,2.818 28.359,9.312 2.653,6.494 4.093,40.982 -4.242,42.9 z"
         transform="translate(-625.047,-879.085)"
         inkscape:connector-curvature="0"
         style="fill:#eaddd0" />
      <path
         id="Path_1290"
         data-name="Path 1290"
         d="m 987.4,926.792 c 0,0 -4.3,-4.339 -1.823,-7.073 2.477,-2.734 3.905,1.431 5.858,1.3 1.953,-0.131 5.467,-5.858 5.726,-11.064 0.259,-5.206 19.047,2.738 26.6,0.265 7.553,-2.473 14.167,-12.565 2.365,-18 -6.935,-3.2 -41.6,-19.66 -54.763,-2.957 -16.773,21.292 5.628,43.6 8.622,46.987 2.994,3.387 4.7,2.385 4.7,2.385 0,0 5.279,-7.149 2.715,-11.843 z"
         transform="translate(-630.949,-881.893)"
         inkscape:connector-curvature="0"
         style="fill:#a67c52" />
      <path
         id="Path_1291"
         data-name="Path 1291"
         d="m 1068.262,1053.73 c 0,0 -44.768,14.715 -51.589,9.748 -6.821,-4.967 -6.111,-23.1 -6.111,-23.1 l 55.363,3.059 z"
         transform="translate(-726.817,-830.154)"
         inkscape:connector-curvature="0"
         style="fill:#d9d1c9" />
      <path
         id="Path_1292"
         data-name="Path 1292"
         d="m 1008.651,1035.985 c 0,0 16.058,2.49 20.414,8.435 4.356,5.945 -14.371,1.106 -16.686,-0.367 -2.315,-1.473 -3.728,-8.068 -3.728,-8.068 z"
         transform="translate(-685.767,-831.588)"
         inkscape:connector-curvature="0"
         style="fill:#d9d1c9" />
      <path
         id="Path_1293"
         data-name="Path 1293"
         d="m 1010.028,890.939 c 0.1,-1.561 0.434,-5.684 1.823,-8.2 a 30.1,30.1 0 0 0 0.52,6.422 c 0.607,2.168 -2.343,1.778 -2.343,1.778 z"
         transform="translate(-670.327,-881.617)"
         inkscape:connector-curvature="0"
         style="fill:#2c3a64" />
      <path
         id="Path_1294"
         data-name="Path 1294"
         d="m 1011.17,886.308 c 0,0 4.078,0.438 4.335,3.649 l -1.478,1.907 c 0,0 0.265,-4.078 -2.857,-5.556 z"
         transform="translate(-674.894,-880.452)"
         inkscape:connector-curvature="0"
         style="fill:#2c3a64" />
      <path
         id="Path_1295"
         data-name="Path 1295"
         d="m 1031.6,962.044 c 0,0 -38.742,93.646 -35.946,108.618 2.796,14.972 74.282,32.375 74.282,32.375 l 1.279,-10.63 -42.965,-35.581 c 0,0 40.895,-60.339 35.594,-71.983 -5.301,-11.644 -29.811,-28.756 -32.244,-22.799 z"
         transform="translate(-709.832,-856.126)"
         inkscape:connector-curvature="0"
         style="fill:#eaddd0" />
      <path
         id="Path_1296"
         data-name="Path 1296"
         d="m 1035.519,1004.121 c -13.112,0.635 -25.737,-2.327 -39.149,-15.419 -2.194,-2.141 -4.915,-3.509 -3.686,-6.317 4.4,-10.048 16.821,-31.078 31.948,-40.85 1.422,-0.917 2.49,-0.118 3.966,0.708 5.583,3.133 17.6,12.4 18.342,23.322 0.657,9.715 -2.673,26.568 -4.688,35.635 -0.667,3.011 -3.652,2.771 -6.733,2.921 z"
         transform="translate(-681.486,-862.556)"
         inkscape:connector-curvature="0"
         style="fill:#ffffff" />
      <path
         id="Path_1297"
         data-name="Path 1297"
         d="m 924.459,1094.5 c 0,0 11.86,10.1 12.386,16.836 0.28,3.588 1.893,17.146 -0.842,16.516 -2.735,-0.63 -5.472,-11.154 -9.259,-12.2 -3.787,-1.046 -8.523,-14.73 -8.523,-14.73 z"
         transform="translate(-473.67,-812.486)"
         inkscape:connector-curvature="0"
         style="fill:#eaddd0" />
      <path
         id="Path_1298"
         data-name="Path 1298"
         d="m 926.175,1099.333 c 0,0 2.526,12.52 4.629,16.518 2.103,3.998 3.473,4.84 4.051,4.051 0.578,-0.789 -1.1,-13.1 -1.1,-13.1 z"
         transform="translate(-481.623,-810.907)"
         inkscape:connector-curvature="0"
         style="fill:#eaddd0" />
      <path
         id="Path_1299"
         data-name="Path 1299"
         d="m 982.69,1060.021 c 0,0 15.731,2.488 18.045,5.643 2.314,3.155 -1.894,11.784 -6.313,12.627 -4.419,0.843 -13.011,-7.639 -13.011,-7.639 z"
         transform="translate(-621.307,-823.741)"
         inkscape:connector-curvature="0"
         style="fill:#eaddd0" />
      <g
         id="Group_709"
         data-name="Group 709"
         transform="translate(0,15.653)">
        <g
           id="Group_707"
           data-name="Group 707"
           transform="translate(0,305.375)">
          <path
             id="Path_1300"
             data-name="Path 1300"
             d="m 1242.918,1351.006 -11.929,6.183 a 200.546,200.546 0 0 1 -13.51,-20.524 c -4.461,-7.863 -8.558,-16.679 -9.561,-23.9 -2.437,-17.541 -21,-46.364 -19.073,-51.275 1.927,-4.911 38.755,-13.4 38.755,-13.4 0,0 7.2,49.281 11.984,81.137 1.396,9.295 2.584,17.108 3.334,21.779 z"
             transform="translate(-1137.799,-1083.371)"
             inkscape:connector-curvature="0"
             style="fill:#eaddd0" />
          <path
             id="Path_1302"
             data-name="Path 1302"
             d="m 1279.479,1259.392 a 197.3,197.3 0 0 0 -24.2,51.158 c -2.147,7.044 -9.468,15.812 -16.869,23.6 -7.181,7.561 -14.435,14.2 -17.116,17.467 l -12.151,-5.846 a 162.129,162.129 0 0 1 10.588,-23.367 65.992,65.992 0 0 1 7.764,-11.241 c 3.869,-4.331 2.6,-59.031 6.448,-62.637 3.848,-3.606 45.536,10.866 45.536,10.866 z"
             transform="translate(-1201.466,-1083.417)"
             inkscape:connector-curvature="0"
             style="fill:#eaddd0" />
          <path
             id="Path_1303"
             data-name="Path 1303"
             d="m 1234.876,1183.031 0.061,0.034 c -0.052,0.026 -0.061,-0.034 -0.061,-0.034 z"
             transform="translate(-1191.064,-1104.61)"
             inkscape:connector-curvature="0"
             style="fill:#ffb27d" />
          <path
             id="Path_1304"
             data-name="Path 1304"
             d="m 1242.529,1206.78 -31.094,-18.761 c 0.171,-0.069 0.8,-1.008 3.125,-7.732 a 37.4,37.4 0 0 0 1.773,-7.329 c 0.027,-0.2 0.052,-0.387 0.069,-0.576 a 20.068,20.068 0 0 0 0.086,-4.522 l 6.812,2.463 12.6,4.563 a 15.608,15.608 0 0 0 0.982,6.984 c 1.645,3.746 4.71,3.772 4.8,3.772 z"
             transform="translate(-1167.562,-1109.563)"
             inkscape:connector-curvature="0"
             style="fill:#eaddd0" />
          <path
             id="Path_1305"
             data-name="Path 1305"
             d="m 1236.575,1181.264 a 23.36,23.36 0 0 1 -20.546,-8.913 c -0.224,-0.293 -0.336,-0.456 -0.336,-0.456 l 0.4,-0.119 c 0.991,-0.293 3.677,-1.1 6.9,-2.059 l 12.6,4.563 a 15.606,15.606 0 0 0 0.982,6.984 z"
             transform="translate(-1167.258,-1108.957)"
             inkscape:connector-curvature="0"
             style="fill:#eaddd0" />
          <path
             id="Path_1306"
             data-name="Path 1306"
             d="m 1234.725,1185.918 c 0,0 -27.049,2.971 -27.6,-15.319 -0.551,-18.29 -4.552,-26.659 14.163,-28.288 18.715,-1.629 23.136,5.111 24.24,11.3 3.44,19.331 -3.183,31.489 -10.803,32.307 z"
             transform="translate(-1164.797,-1117.985)"
             inkscape:connector-curvature="0"
             style="fill:#eaddd0" />
          <path
             id="Path_1307"
             data-name="Path 1307"
             d="m 1253.914,1128.658 c -0.377,-0.844 -0.646,-1.394 -0.646,-1.394 a 4.474,4.474 0 0 1 0.646,1.394 z"
             transform="translate(-1234.437,-1122.816)"
             inkscape:connector-curvature="0"
             style="fill:#d35c2b" />
          <path
             id="Path_1308"
             data-name="Path 1308"
             d="m 1168.037,1197.363 c 0,0 25.938,-19.929 28.7,-26.528 2.762,-6.599 14.676,-30.748 17.752,-33.208 0,0 6.448,-0.829 7.371,3.635 0.923,4.464 -6.14,30.954 -11.061,38.952 -4.921,7.998 -28.507,35.114 -36.251,39.048 z"
             transform="translate(-1089.415,-1119.453)"
             inkscape:connector-curvature="0"
             style="fill:#eaddd0" />
          <path
             id="Path_1309"
             data-name="Path 1309"
             d="m 1177.537,1129.878 a 14.123,14.123 0 0 1 -2.481,6.073 c -1.452,1.711 -3.763,5.132 -5.217,7.355 -0.941,1.37 -1.539,2.4 -1.539,2.4 l -7.355,-3.592 c 0,0 -0.171,-12.487 4.7,-15.137 0.171,-0.086 0.256,-0.172 0.427,-0.172 a 30.594,30.594 0 0 1 5.73,-2.394 c 2.309,-0.6 4.105,-0.683 5.132,-0.085 0.945,0.506 1.118,2.987 0.603,5.552 z"
             transform="translate(-1035.882,-1123.911)"
             inkscape:connector-curvature="0"
             style="fill:#eaddd0" />
          <path
             id="Path_1310"
             data-name="Path 1310"
             d="m 1234.535,1155.161 c -9.572,-2.423 -5.912,14.534 -8.332,13.374 -2.706,-1.3 -7.355,-1.279 -6.622,1.988 0.733,3.267 1.793,4.436 2.345,6.474 0.552,2.038 0,6.08 -2.23,5.266 -2.23,-0.814 -22.925,-24.451 -8.309,-42.862 14.616,-18.411 58.2,-7.069 44.474,12.19 -2.413,3.387 -14.512,5.296 -21.326,3.57 z"
             transform="translate(-1176.593,-1121.901)"
             inkscape:connector-curvature="0"
             style="fill:#a67c52" />
          <path
             id="Path_1311"
             data-name="Path 1311"
             d="m 1277.435,1317.787 c 0,0 -26.611,5.578 -39.294,3.861 -17.081,-2.312 -32.222,-2.7 -48.208,-11.328 0,0 8.495,-42.2 9.017,-44.244 0.751,-2.954 6.184,-25.625 11.2,-46.6 4.589,-19.185 8.835,-36.951 8.835,-36.951 0,0 12.668,9 20.051,5.826 7.383,-3.174 6.435,-6.767 6.435,-6.767 0,0 4.83,-1.95 7.094,-1.231 2.264,0.719 8.694,-2.927 8.694,-2.927 0,0 7.1,5.487 7.37,17.269 a 32.2,32.2 0 0 1 -0.369,5.653 l -5.125,5.907 c 0,0 11.574,70.645 14.3,111.532 z"
             transform="translate(-1173.948,-1106.442)"
             inkscape:connector-curvature="0"
             style="fill:#ffd176" />
          <path
             id="Path_1312"
             data-name="Path 1312"
             d="m 1209.69,1340.733 h -35.619 a 45.089,45.089 0 0 1 0.138,-10.748 3.043,3.043 0 0 1 0.881,-1.624 12.856,12.856 0 0 0 8.557,-0.019 17.6,17.6 0 0 0 6.3,-3.92 c 0.369,0.357 7.727,7.37 11.129,7.37 3.489,10e-4 8.817,1.681 8.614,8.941 z"
             transform="translate(-1084.816,-1058.451)"
             inkscape:connector-curvature="0"
             style="fill:#004359" />
          <path
             id="Path_1314"
             data-name="Path 1314"
             d="m 1266.3,1324.951 c 0,0 -0.443,7.733 2.134,8.759 2.577,1.026 7.382,3.56 7.382,8.468 h -17.841 c 0,0 -12.306,-6.054 -13.945,-8.623 -1.639,-2.569 8.2,-13.547 8.2,-13.547 0,0 6.046,6.683 14.07,4.943 z"
             transform="translate(-1243.849,-1059.893)"
             inkscape:connector-curvature="0"
             style="fill:#004359" />
          <path
             id="Path_1315"
             data-name="Path 1315"
             d="m 1219.588,1229.114 c 0,0 7.813,-1.458 10.869,0.542 3.056,2 3.959,5.131 1.759,6.408 -6.895,4.009 -13.884,-0.423 -13.884,-0.423 z"
             transform="translate(-1167.615,-1089.733)"
             inkscape:connector-curvature="0"
             style="fill:#eaddd0" />
          <path
             id="Path_1316"
             data-name="Path 1316"
             d="m 1261.528,1183.109 c 0,0 -24.062,5.095 -33.553,42.5 a 11.349,11.349 0 0 0 2.561,10.373 c 4.364,4.835 13.984,11.906 36.353,14.51 2.442,0.284 2.769,-5.912 2.769,-5.912 -0.243,0.494 -15.195,-9.661 -21.559,-15.118 -1.151,-0.988 -1.1,-3.06 -0.272,-4.328 2.15,-3.282 5.758,-8.955 6.971,-11.867 1.77,-4.246 13.455,-28.229 6.73,-30.158 z"
             transform="translate(-1216.172,-1104.585)"
             inkscape:connector-curvature="0"
             style="fill:#eaddd0" />
          <path
             id="Path_1317"
             data-name="Path 1317"
             d="m 1257.588,1181.266 c 0,0 -14.147,1 -25.683,16.386 0,0 3.9,14.148 22.229,17.926 0,0 11.294,-25.478 3.454,-34.312 z"
             transform="translate(-1212.543,-1105.187)"
             inkscape:connector-curvature="0"
             style="fill:#ffd176" />
          <path
             id="Path_1318"
             data-name="Path 1318"
             d="m 1276.025,1133.035 c 0,0 -13.61,-3.7 -22.76,6.23 -9.15,9.93 4.176,28.149 -8.619,38.121 -12.795,9.972 -7.737,17.417 -2.539,19.845 11.689,5.46 29.548,-1.337 25.915,-10.553 a 33.386,33.386 0 0 1 3.352,-31.209 z"
             transform="translate(-1234.435,-1121.153)"
             inkscape:connector-curvature="0"
             style="fill:#a67c52" />
        </g>
        <g
           id="Group_708"
           data-name="Group 708"
           transform="translate(128.771)">
          <path
             id="Path_1319"
             data-name="Path 1319"
             d="m 1043.891,1303.061 c 0.012,0.12 0.025,0.234 0.037,0.348 0.025,0.208 0.052,0.4 0.057,0.562 a 250.9,250.9 0 0 0 7.942,40.1 331.5,331.5 0 0 0 22.535,58.733 l 11.028,-1.023 c 0,0 -6.028,-25.648 -6.552,-60.481 -0.359,-24.361 1.968,-53.2 10.933,-80.909 5.246,-16.211 9.4,-31.644 12.676,-46.108 10.687,-47.185 12.064,-83.944 11.8,-103.084 -0.126,-9.444 -0.649,-14.6 -0.649,-14.6 l -61.991,8.748 -2.892,0.411 c 0.418,28.557 0.606,67.344 0.688,97.669 0.02,7.31 0.032,14.133 0.045,20.2 0.012,8.415 0.019,15.384 0.019,20.2 v 7.31 a 82.688,82.688 0 0 0 -6.187,26.821 144.021,144.021 0 0 0 0.511,25.103 z"
             transform="translate(-944.829,-827.453)"
             inkscape:connector-curvature="0"
             style="fill:#736357" />
          <path
             id="Path_1320"
             data-name="Path 1320"
             d="m 1054.536,1330.852 c -0.271,-1.444 -0.652,-3.276 -1.088,-5.282 a 340.258,340.258 0 0 1 -14.665,-41.725 c 15.615,1.305 23.307,-0.8 27.01,-2.775 a 338.2,338.2 0 0 0 2.421,35.447 c 1.629,6.1 4.624,15.85 8.054,19.934 5.458,6.5 9.265,13.4 16.522,17.074 0.812,0.411 1.625,0.82 2.437,1.218 6.453,3.189 12.515,6.028 11.568,7.579 -1.064,1.75 -6.608,5.106 -19.809,1.959 -13.201,-3.147 -10.153,-4.977 -19.857,-6 -9.704,-1.023 -18.025,-2.946 -17.138,-8.95 a 23.761,23.761 0 0 1 2,-6 c 1.56,-3.531 3.353,-8.185 2.545,-12.479 z"
             transform="translate(-931.681,-767.229)"
             inkscape:connector-curvature="0"
             style="fill:#eaddd0" />
          <path
             id="Path_1321"
             data-name="Path 1321"
             d="m 1083.149,1266.826 c -0.985,-11.362 18.414,-50.6 18.414,-50.6 l -12.733,-8.637 v 7.31 a 82.7,82.7 0 0 0 -6.187,26.821 144.021,144.021 0 0 0 0.506,25.106 z"
             transform="translate(-984.087,-791.218)"
             inkscape:connector-curvature="0"
             style="fill:#5b4c43" />
          <path
             id="Path_1322"
             data-name="Path 1322"
             d="m 1055.986,1342.962 c 9.7,1.019 6.654,2.851 19.857,6 13.203,3.149 18.746,-0.209 19.809,-1.959 0.947,-1.552 -5.115,-4.391 -11.568,-7.579 l -0.109,0.107 a 38.02,38.02 0 0 1 -20.211,-0.866 c -8.69,-2.878 -16.931,-8.617 -22.915,-10.653 a 23.761,23.761 0 0 0 -2,6 c -0.888,6.004 7.433,7.933 17.137,8.95 z"
             transform="translate(-920.539,-751.905)"
             inkscape:connector-curvature="0"
             style="fill:#004359" />
          <path
             id="Path_1323"
             data-name="Path 1323"
             d="m 1043.561,1105.755 c 0.418,28.557 0.606,67.344 0.688,97.669 0.02,7.31 12.785,42.967 12.8,49.034 10.321,-14.708 19.254,-116.4 33.545,-142.132 -0.126,-9.443 17.852,-13.73 17.852,-13.73 l -61.991,8.748 z"
             transform="translate(-939.57,-827.453)"
             inkscape:connector-curvature="0"
             style="fill:#5b4c43" />
          <path
             id="Path_1324"
             data-name="Path 1324"
             d="m 1101.57,905.631 c -0.367,-1.284 -5.034,-15.77 -27.63,-10.963 0,0 11.315,-1.425 14.416,2.934 0,0 -8.968,-4.107 -14.584,-0.671 -5.616,3.436 -6.538,15 -5.7,18.524 0.838,3.524 7.041,14 11.148,14 a 12.16,12.16 0 0 0 4.685,-1.159 54.229,54.229 0 0 0 -1.667,6.1 c -4.361,20.526 9.286,36.125 16.345,32.27 4.526,-2.472 7.952,5.448 7.952,5.448 l 37.56,-49.788 c 0,0 -26.177,-31.449 -42.525,-16.695 z"
             transform="translate(-1007.376,-893.694)"
             inkscape:connector-curvature="0"
             style="fill:#a67c52" />
          <path
             id="Path_1325"
             data-name="Path 1325"
             d="m 1191.992,1130.426 c -17.044,-54.478 1.633,-66.322 -0.141,-93.583 -1.774,-27.261 -22.883,-56.575 -22.883,-56.575 0,0 -1.074,-0.109 -2.9,-0.273 -1.417,-0.746 -1.795,-6.673 -1.777,-12.928 0.017,-7.505 0.593,-15.471 0.593,-15.471 l -25.314,-5.013 -1.5,-0.3 c 0.062,17.619 -4.576,29.188 -7.938,31.879 -3.162,0.364 -16.647,2.06 -24.957,5.535 -3.133,1.308 -5.523,2.868 -6.358,4.7 -6.951,15.285 -13.891,53.86 -18.77,81.377 -2.718,15.335 -4.791,27.24 -5.874,29.763 -3.019,7.037 -12.239,45.762 -20.117,64.872 l 10.061,3.016 c 0,0 33.189,-55.07 36.208,-69.4 0.984,-4.665 3.4,-14 6.213,-24.46 0.426,-1.583 0.861,-3.192 1.3,-4.814 4.973,13.486 7.513,19.729 7.374,25.556 -0.2,8.293 -5.819,15.745 -17.571,42.1 -6.491,14.574 111.75,49.661 94.351,-5.981 z"
             transform="translate(-1038.789,-876.524)"
             inkscape:connector-curvature="0"
             style="fill:#eaddd0" />
          <path
             id="Path_1326"
             data-name="Path 1326"
             d="m 1101.123,954.548 c 0,0 -0.576,7.965 -0.593,15.471 -14.165,-0.4 -21.653,-13.32 -24.721,-20.483 z"
             transform="translate(-975.025,-875.464)"
             inkscape:connector-curvature="0"
             style="fill:#eaddd0" />
          <path
             id="Path_1327"
             data-name="Path 1327"
             d="m 1073.213,960.259 c 0,0 -7.423,-11.73 -9.206,-21.759 -1.272,-7.16 2.376,-33.7 29.047,-29.879 a 36.231,36.231 0 0 1 15.027,5.68 c 5.79,3.912 14.148,12.356 4.8,35.516 l -2.428,7.824 z"
             transform="translate(-975.042,-888.943)"
             inkscape:connector-curvature="0"
             style="fill:#a67c52" />
          <path
             id="Path_1328"
             data-name="Path 1328"
             d="m 1097.741,972.589 c 0,0 -33.515,0.553 -33.537,-20.323 -0.022,-20.876 -4.364,-34.866 17.033,-36.1 21.397,-1.234 25.564,6.727 27.266,13.692 1.702,6.965 -2.045,42.05 -10.762,42.731 z"
             transform="translate(-966.912,-886.399)"
             inkscape:connector-curvature="0"
             style="fill:#eaddd0" />
          <path
             id="Path_1329"
             data-name="Path 1329"
             d="m 1171.89,1264.113 c -2.129,3.992 -23.22,29.347 -44.4,57.42 -1.816,2.4 -3.7,4.99 -5.624,7.709 -12.482,17.583 -26.854,40.508 -35.443,51.668 -7.808,10.145 -14.821,-2.56 -10.884,-11.622 6.215,-14.3 11.481,-39.3 17.5,-57.69 a 118.435,118.435 0 0 1 4.307,-11.493 c 6.479,-14.49 19.1,-30.368 34.454,-46.081 2.663,-2.726 -22.266,-67.788 -20.605,-117.96 0.653,-19.885 3.421,-37.371 9.757,-48.026 l 63.056,3.127 c 0,0 8.621,134.009 -12.118,172.948 z"
             transform="translate(-1057.824,-830.247)"
             inkscape:connector-curvature="0"
             style="fill:#736357" />
          <path
             id="Path_1330"
             data-name="Path 1330"
             d="m 1116.555,919.3 c -5.172,-6.268 -9.082,-4.905 -11.278,-3.023 -17.971,-9.967 -30.135,4.828 -30.135,4.828 a 39.873,39.873 0 0 1 -13.043,23.561 c 0,0 6.108,3.772 20.191,0.151 4.3,-1.1 8.137,-4.155 11.4,-7.857 a 78.227,78.227 0 0 1 -13.448,16.422 c 16.821,-7.776 23.576,-31.172 24.249,-33.646 2.045,1.837 6.078,5.828 7.309,9.74 1.67,5.317 2.422,16.26 5.611,15.888 0,-10e-4 6.913,-16.648 -0.856,-26.064 z"
             transform="translate(-975.961,-887.448)"
             inkscape:connector-curvature="0"
             style="fill:#a67c52" />
          <path
             id="Path_1331"
             data-name="Path 1331"
             d="m 1164.913,1109.373 c 0,0 -3.059,7.208 -6.244,9.219 -3.185,2.011 -7.712,6.874 -6.874,10.728 0.838,3.854 1.677,9.89 5.7,9.89 4.023,0 13.41,-17.768 14.584,-21.121 1.174,-3.353 2.18,-4.023 2.18,-4.023 z"
             transform="translate(-1148.82,-823.282)"
             inkscape:connector-curvature="0"
             style="fill:#eaddd0" />
          <path
             id="Path_1332"
             data-name="Path 1332"
             d="m 1055.43,1151.107 a 15.574,15.574 0 0 0 0.391,5.147 c 1.342,4.313 5.949,6.276 17.088,5.1 6.807,-0.723 9.842,-12.375 11.2,-22.315 q 6.134,21.334 17.215,23.881 c 10.8,2.453 69.146,6.578 72.71,-19.868 3.922,-29.084 -11.7,-77.946 -12.343,-105.714 a 140.215,140.215 0 0 0 1.975,-25.732 c -0.454,-19.781 -6.139,-30.868 -10.51,-35.333 -1.239,-0.97 -2.476,-1.576 -7.447,-2.446 -2.54,-0.442 -6.059,-0.952 -11.045,-1.624 a 20.564,20.564 0 0 0 -2.1,-0.2 c 0.922,1.682 10.837,16.59 9.874,21.494 -1.008,5.136 -39.125,4.395 -42.144,1.572 -3.019,-2.823 -10.892,-24.12 -10.892,-24.12 0,0 -15.493,1.73 -23.073,7.358 l 0.081,0.1 a 6.468,6.468 0 0 0 -1.992,2.142 c -8.086,15.721 -16.16,55.4 -21.839,83.7 13.765,7.746 25.79,5.441 29.522,4.417 -4.883,32.593 -15.945,67.589 -16.671,82.441 z"
             transform="translate(-1004.478,-868.475)"
             inkscape:connector-curvature="0"
             style="fill:#adc987" />
          <path
             id="Path_1333"
             data-name="Path 1333"
             d="m 1070.282,949.807 c 0,0 0.637,2.569 7.043,2.1 0,0 5.379,-0.4 5.181,-3.227 10e-4,-0.004 -5.243,-1.957 -12.224,1.127 z"
             transform="translate(-949.082,-875.943)"
             inkscape:connector-curvature="0"
             style="fill:#ffffff" />
          <path
             id="Path_1334"
             data-name="Path 1334"
             d="m 1170.05,1274.221 c -12.482,17.584 -26.854,40.508 -35.443,51.668 -7.807,10.145 -14.821,-2.56 -10.884,-11.622 6.215,-14.3 11.481,-39.3 17.5,-57.691 4.04,6.146 12.296,14.082 28.827,17.645 z"
             transform="translate(-1106.01,-775.225)"
             inkscape:connector-curvature="0"
             style="fill:#eaddd0" />
          <path
             id="Path_1335"
             data-name="Path 1335"
             d="m 1161.53,1115.944 c 0,0 -1.1,8.113 -3.239,9.984 -2.139,1.871 -2.449,5.238 -4.641,3.428 -2.192,-1.81 7.88,-13.412 7.88,-13.412 z"
             transform="translate(-1138.269,-821.137)"
             inkscape:connector-curvature="0"
             style="fill:#eaddd0" />
          <path
             id="Path_1336"
             data-name="Path 1336"
             d="m 1141.49,1310.442 c -5.084,3.314 -1.016,10.823 4.652,18.766 5.668,7.943 2.275,6.871 8.667,18.844 6.392,11.973 12.579,13.9 14.594,13.539 1.789,-0.318 -0.1,-6.741 -1.989,-13.685 -0.241,-0.871 -0.472,-1.752 -0.7,-2.632 -2.055,-7.872 0.589,-15.294 1.841,-23.689 1.186,-7.953 12.67,-23.7 12.67,-23.7 L 1173,1281.247 c 0,0 -10.09,14.486 -14.651,20.352 -2.682,3.449 -7.355,5.19 -11.033,6.363 a 23.744,23.744 0 0 0 -5.826,2.48 z"
             transform="translate(-1139.173,-767.171)"
             inkscape:connector-curvature="0"
             style="fill:#eaddd0" />
          <path
             id="Path_1337"
             data-name="Path 1337"
             d="m 1154.51,1322.633 c 5.668,7.943 2.275,6.871 8.667,18.844 6.392,11.973 12.579,13.9 14.594,13.539 1.789,-0.318 -0.1,-6.741 -1.988,-13.685 l -0.153,-0.012 a 38.016,38.016 0 0 1 -12.745,-15.711 c -3.6,-8.415 -4.763,-18.39 -7.2,-24.221 a 23.744,23.744 0 0 0 -5.823,2.48 c -5.088,3.314 -1.02,10.823 4.648,18.766 z"
             transform="translate(-1147.541,-760.596)"
             inkscape:connector-curvature="0"
             style="fill:#004359" />
        </g>
      </g>
      <path
         id="Path_1338"
         data-name="Path 1338"
         d="m 1021.041,1045.718 c 0.888,3.194 1.177,6.815 -0.991,13.221 -2.168,6.406 -3.867,6.8 -6.066,2.593 -2.199,-4.207 -3.315,-8.394 -5.984,-13.271 -1.488,-2.719 1.013,-6.811 4.774,-7.671 a 7.091,7.091 0 0 1 8.267,5.128 z"
         transform="translate(-676.313,-830.134)"
         inkscape:connector-curvature="0"
         style="fill:#d9d1c9" />
      <path
         id="Path_1339"
         data-name="Path 1339"
         d="m 1022.2,1040.519 c 0,0 -6.587,1.265 -7.692,4.105 -1.105,2.84 0.631,6.944 0.789,9.31 0.158,2.366 1.581,1.539 1.856,0.513 0.275,-1.026 1.26,-7.85 1.26,-7.85 z"
         transform="translate(-685.524,-830.107)"
         inkscape:connector-curvature="0"
         style="fill:#d9d1c9" />
      <path
         id="Path_1340"
         data-name="Path 1340"
         d="m 1042.385,973.573 c 0,0 10.1,-0.046 17.15,13.526 7.05,13.572 11.474,35.35 11.474,35.35 0,0 -6.945,18.938 -21.464,15.781 -14.519,-3.157 -7.16,-64.657 -7.16,-64.657 z"
         transform="translate(-769.33,-851.963)"
         inkscape:connector-curvature="0"
         style="fill:#adc987" />
    </g>
  </g>
</svg>
