<svg xmlns="http://www.w3.org/2000/svg" width="3131.37" height="1159.605" viewBox="0 0 3131.37 1159.605">
  <path id="Union_4" data-name="Union 4" d="M337.292,1105.534a415.394,415.394,0,0,1-96.557-36.171H187.879v-35.574c-18.206-16.213-30.494-33.807-32.956-51.651-4.077-29.526,2.045-54.229-9.033-86.047-11.637-33.426-23.674-65.475-54.108-94.036-55.35-51.941-116.408-112.977-81.571-170.8,25.539-42.4,98.205-71.472,116.289-115.186C150.335,458.45,71.682,405.112,46.144,347.75c-23.85-53.563-45.784-151.134.14-199.417C113.792,77.36,228.781,22.671,360.537-1.13c76.966-13.9,157.981-17.5,238.117-21.919,429.909-23.684,904.647-15.8,1335.591,0,175.166,6.423,368.266,12.353,471.837,96.081,46.571,37.652,74.024,86.6,142.333,109.954,54.138,18.513,120.7,16.1,182.641,21.247,130.64,10.85,260.354,70.146,263.663,148.083,1.358,32-18.084,62.821-32.837,93.62-26.259,54.832-14,87.47,3.77,127.166,47.6,8.8,101.663,15.8,164.652,20.092l-156.73,476.167h-62.86c-7.974,3.812-16.331,7.458-24.961,10.932-43.094,17.347-90.188,12.714-139.7,8.079-29.664-2.776-60.2-5.551-91.259-3.6-278.232,17.467-558.582,7.875-838.726-1.717-313.124-10.721-625.992-21.443-935.357,5.622-121.715,10.648-241.925,29.247-364.9,31.681q-12.066.239-24.194.246C438.985,1120.606,386.094,1116.92,337.292,1105.534Z" transform="translate(0.391 38.499)" fill="#47aa7c" stroke="rgba(0,0,0,0)" stroke-width="1"/>
</svg>
