<svg xmlns="http://www.w3.org/2000/svg" width="272.751" height="151.288" viewBox="0 0 272.751 151.288">
  <g id="Group_771" data-name="Group 771" transform="translate(-236.781 36.916)">
    <path id="Path_1227" data-name="Path 1227" d="M824.246,889.289a45.407,45.407,0,0,0,.271-4.928c0-25.947-22.1-46.981-49.366-46.981a51.3,51.3,0,0,0-20.225,4.126c-3.945-22.187-24.222-39.088-48.658-39.088-25.94,0-47.192,19.044-49.2,43.24a51.382,51.382,0,0,0-18.515-3.43c-27.265,0-49.367,21.035-49.367,46.982,0,.027,0,.053,0,.08Z" transform="translate(-352.409 -774.916)" fill="#fff"/>
    <g id="Group_679" data-name="Group 679" transform="translate(360.617 -36.916)">
      <path id="Path_3" data-name="Path 3" d="M431.257,139.022c-1.013,15.6,10.688,43.782,43.493,43.95s46.889-24.552,46.889-42.069-13.958-45.832-45.221-45.832S432.6,118.394,431.257,139.022Z" transform="translate(-401.824 -64.494)" fill="#ffd176"/>
      <path id="Path_4" data-name="Path 4" d="M466.062,91.571c.121-7.869-1.066-20.36.612-20.334s2.244.5,2.059,7.243,1.2,14.648-.485,14.923S466.062,91.571,466.062,91.571Z" transform="translate(-392.044 -71.237)" fill="#ffd176"/>
      <path id="Path_5" data-name="Path 5" d="M496.026,102.3c5.65-5.478,13.642-15.149,14.811-13.944s1.233,1.941-3.667,6.577-9.509,11.206-10.894,10.208S496.026,102.3,496.026,102.3Z" transform="translate(-383.607 -66.423)" fill="#ffd176"/>
      <path id="Path_6" data-name="Path 6" d="M508.938,129c7.869.121,20.358-1.065,20.333.612s-.5,2.245-7.243,2.059-14.648,1.2-14.921-.485S508.938,129,508.938,129Z" transform="translate(-380.356 -54.98)" fill="#ffd176"/>
      <path id="Path_7" data-name="Path 7" d="M497.062,158.961c5.479,5.65,15.15,13.644,13.945,14.811s-1.941,1.233-6.579-3.665-11.206-9.509-10.208-10.894S497.062,158.961,497.062,158.961Z" transform="translate(-384.023 -46.543)" fill="#ffd176"/>
      <path id="Path_8" data-name="Path 8" d="M467.35,171.873c-.121,7.869,1.066,20.36-.612,20.334s-2.244-.5-2.059-7.243-1.2-14.648.485-14.923S467.35,171.873,467.35,171.873Z" transform="translate(-392.454 -43.292)" fill="#ffd176"/>
      <path id="Path_9" data-name="Path 9" d="M440.16,160c-5.65,5.478-13.642,15.149-14.81,13.944s-1.234-1.941,3.665-6.577,9.509-11.206,10.894-10.208S440.16,160,440.16,160Z" transform="translate(-403.664 -46.958)" fill="#ffd176"/>
      <path id="Path_10" data-name="Path 10" d="M428.634,130.287c-7.869-.121-20.358,1.065-20.333-.612s.5-2.245,7.243-2.059,14.648-1.2,14.921.485S428.634,130.287,428.634,130.287Z" transform="translate(-408.301 -55.389)" fill="#ffd176"/>
      <path id="Path_11" data-name="Path 11" d="M439.363,103.1c-5.479-5.65-15.149-13.644-13.945-14.811s1.941-1.233,6.579,3.665S443.2,101.46,442.2,102.846,439.363,103.1,439.363,103.1Z" transform="translate(-403.488 -66.6)" fill="#ffd176"/>
    </g>
  </g>
</svg>
